<svg xmlns="http://www.w3.org/2000/svg" width="647.242" height="635.021" viewBox="0 0 647.242 635.021">
  <g id="Secure_login-amico" data-name="Secure login-amico" transform="translate(-43 -37.5)">
    <g id="freepik--Shadows--inject-2" transform="translate(45.288 338.596)">
      <path id="Path_1987" data-name="Path 1987" d="M125.747,394.841,245.328,325.8l95.364,54.9a63.006,63.006,0,0,1,17-13.838c33.994-19.7,89.047-19.7,122.89,0s33.693,51.442-.451,71.147a101.654,101.654,0,0,1-23.315,9.627l9.627,5.565a4.288,4.288,0,0,1,1.655,5.866,5.774,5.774,0,0,1-1.655,1.655L355.583,524.8a16.972,16.972,0,0,1-17.3,0L125.747,402.362a4.288,4.288,0,0,1-1.655-5.866A5.773,5.773,0,0,1,125.747,394.841Z" transform="translate(-4.693 -193.245)" fill="#e0e0e0"/>
      <path id="Path_1988" data-name="Path 1988" d="M463.05,351.537c-9.777-5.716-25.721-5.716-35.5,0s-9.777,14.891.15,20.607,25.721,5.716,35.5,0S472.977,357.253,463.05,351.537Z" transform="translate(144.902 -182.431)" fill="#e0e0e0"/>
      <path id="Path_1989" data-name="Path 1989" d="M45.693,433.555l5.415,3.159a9.665,9.665,0,0,0,9.476,0L390.748,246.136a2.419,2.419,0,0,0,.9-3.159,2.554,2.554,0,0,0-.9-.9l-5.265-3.159a9.665,9.665,0,0,0-9.476,0L45.693,429.644a2.419,2.419,0,0,0-.9,3.159A1.541,1.541,0,0,0,45.693,433.555Z" transform="translate(-44.521 -237.675)" fill="#e0e0e0"/>
    </g>
    <g id="freepik--Window--inject-2" transform="translate(482.366 37.5)">
      <path id="Path_1990" data-name="Path 1990" d="M394,78.8l-.3,132.968,6.769,3.911.3-132.968Z" transform="translate(-305.556 -16.678)" fill="#e0e0e0"/>
      <path id="Path_1991" data-name="Path 1991" d="M398.5,81.4h0l-.3,132.968,5.866-3.46.3-126.2Z" transform="translate(-303.287 -15.367)" fill="#f0f0f0"/>
      <rect id="Rectangle_2116" data-name="Rectangle 2116" height="7.822" transform="translate(91.904 60.167)" fill="#e0e0e0"/>
      <path id="Path_1992" data-name="Path 1992" d="M400.669,88.126V82.711L393.9,78.8v5.415Z" transform="translate(-305.455 -16.678)" opacity="0.2"/>
      <path id="Path_1993" data-name="Path 1993" d="M398.4,86.815l4.813-2.707L398.4,81.4h0Z" transform="translate(-303.186 -15.367)" opacity="0.2"/>
      <rect id="Rectangle_2117" data-name="Rectangle 2117" height="7.822" transform="translate(91.904 60.167)" fill="#e0e0e0"/>
      <path id="Path_1994" data-name="Path 1994" d="M340.051,48.609l5.866-3.309-.451,132.968-5.866,3.46Z" transform="translate(-332.831 -33.568)" fill="#f0f0f0"/>
      <path id="Path_1995" data-name="Path 1995" d="M339.6,137.16l5.866-3.46,169.519,97.921-5.866,3.309Z" transform="translate(-332.831 11.001)" fill="#f5f5f5"/>
      <path id="Path_1996" data-name="Path 1996" d="M335.551,39.8,518.458,145.392,518.006,294,335.1,188.411ZM511.388,282.271l.3-132.968L342.17,51.532l-.3,133.119,169.519,97.62" transform="translate(-335.1 -36.34)" fill="#e0e0e0"/>
      <path id="Path_1997" data-name="Path 1997" d="M335.4,40.96l5.866-3.46L524.323,143.243l-6.017,3.309Z" transform="translate(-334.949 -37.5)" fill="#f5f5f5"/>
      <path id="Path_1998" data-name="Path 1998" d="M457.1,111.109l6.017-3.309-.451,148.461-5.866,3.46Z" transform="translate(-273.743 -2.057)" fill="#f0f0f0"/>
    </g>
    <g id="freepik--Furniture--inject-2" transform="translate(404.451 213.638)">
      <path id="Path_1999" data-name="Path 1999" d="M285.1,190.8V303.161l191.029,109.8V300.6Z" transform="translate(-282.393 -136.349)" fill="#e0e0e0"/>
      <path id="Path_2000" data-name="Path 2000" d="M487.609,234.9V347.261L412.1,390.731V278.37Z" transform="translate(-218.364 -114.116)" fill="#e0e0e0"/>
      <path id="Path_2001" data-name="Path 2001" d="M285.1,190.8V303.161l191.029,109.8V300.6Z" transform="translate(-282.393 -136.349)" opacity="0.1"/>
      <path id="Path_2002" data-name="Path 2002" d="M487.609,234.9V347.261L412.1,390.731V278.37Z" transform="translate(-218.364 -114.116)" opacity="0.2"/>
      <path id="Path_2003" data-name="Path 2003" d="M283.3,198.672,478.841,310.883l76.411-43.922L359.561,154.6Z" transform="translate(-283.3 -154.6)" fill="#ebebeb"/>
      <path id="Path_2004" data-name="Path 2004" d="M283.3,183.9v11.432L478.841,307.693V296.111Z" transform="translate(-283.3 -139.828)" fill="#e0e0e0"/>
      <path id="Path_2005" data-name="Path 2005" d="M489.712,229.3v11.432L413.3,284.8V273.222Z" transform="translate(-217.759 -116.939)" fill="#e0e0e0"/>
      <path id="Path_2006" data-name="Path 2006" d="M489.712,229.3v11.432L413.3,284.8V273.222Z" transform="translate(-217.759 -116.939)" opacity="0.1"/>
      <path id="Path_2007" data-name="Path 2007" d="M428.264,255.485l42.718-24.819L430.069,206.9,387.2,231.719Z" transform="translate(-230.917 -128.232)" opacity="0.1"/>
      <path id="Path_2008" data-name="Path 2008" d="M421,240.008l30.384-17.6-5.565-3.309L421,233.39Z" transform="translate(-213.877 -122.081)" fill="#263238"/>
      <path id="Path_2009" data-name="Path 2009" d="M451.687,223.871,421.3,241.47v-6.618l24.819-14.29,5.565-3.309V216.2L420.4,234.4v8.574l31.287-18.05Z" transform="translate(-214.179 -123.543)" fill="#455a64"/>
      <path id="Path_2010" data-name="Path 2010" d="M451.687,223.871,421.3,241.47v-6.618l24.819-14.29,5.565-3.309V216.2L420.4,234.4v8.574l31.287-18.05Z" transform="translate(-214.179 -123.543)" opacity="0.3"/>
      <path id="Path_2011" data-name="Path 2011" d="M451.687,223.871,421.3,241.47v-6.618l24.819-14.29,5.565-3.309V216.2L420.4,234.4v8.574l31.287-18.05Z" transform="translate(-214.179 -123.543)" fill="#fff" opacity="0.1"/>
      <path id="Path_2012" data-name="Path 2012" d="M435.575,237.123,390.3,210.8v8.724L435.575,245.7Z" transform="translate(-229.354 -126.266)" fill="#455a64"/>
      <path id="Path_2013" data-name="Path 2013" d="M435.575,237.123,390.3,210.8v8.724L435.575,245.7Z" transform="translate(-229.354 -126.266)" opacity="0.2"/>
      <path id="Path_2014" data-name="Path 2014" d="M435.575,237.123,390.3,210.8v8.724L435.575,245.7Z" transform="translate(-229.354 -126.266)" fill="#fff" opacity="0.1"/>
      <path id="Path_2015" data-name="Path 2015" d="M435.575,243.173l31.287-18.2L421.737,198.8,390.3,216.85Z" transform="translate(-229.354 -132.316)" fill="#455a64"/>
      <path id="Path_2016" data-name="Path 2016" d="M435.575,243.173l31.287-18.2L421.737,198.8,390.3,216.85Z" transform="translate(-229.354 -132.316)" fill="#fff" opacity="0.1"/>
      <path id="Path_2017" data-name="Path 2017" d="M450.632,217.3v6.468L421,240.915V234.3Z" transform="translate(-213.877 -122.989)" fill="#e0e0e0"/>
      <path id="Path_2018" data-name="Path 2018" d="M450.632,217.3v6.468L421,240.915V234.3Z" transform="translate(-213.877 -122.989)" fill="#fff" opacity="0.6"/>
      <path id="Path_2019" data-name="Path 2019" d="M425.91,237.175l.6-2.407,2.256.6c-2.557-2.407-.752-5.415-3.61-7.07l-2.858,1.655C424.857,232.211,423.353,234.467,425.91,237.175Z" transform="translate(-213.221 -117.443)" fill="#0084ff"/>
      <g id="Group_3727" data-name="Group 3727" transform="translate(209.079 110.857)" opacity="0.2">
        <path id="Path_2020" data-name="Path 2020" d="M425.91,237.175l.6-2.407,2.256.6c-2.557-2.407-.752-5.415-3.61-7.07l-2.858,1.655C424.857,232.211,423.353,234.467,425.91,237.175Z" transform="translate(-422.3 -228.3)" fill="#fff"/>
      </g>
      <path id="Path_2021" data-name="Path 2021" d="M417.236,202.884l-19.7,11.281c-.451.15-.451.752-.3,1.053,0,.15.15.15.3.3l10.68,6.167a2.231,2.231,0,0,0,1.955,0l19.7-11.432a.793.793,0,0,0,.3-1.053c0-.15-.15-.15-.3-.3l-10.68-6.167A2.993,2.993,0,0,0,417.236,202.884Z" transform="translate(-225.906 -130.383)" fill="#455a64"/>
      <path id="Path_2022" data-name="Path 2022" d="M428.71,208.3,406.9,220.785l1.655,1.053,21.81-12.635Z" transform="translate(-220.985 -127.526)" fill="#455a64"/>
      <path id="Path_2023" data-name="Path 2023" d="M408.5,220.069l1.805.9,11.582-6.618-1.8-1.053Z" transform="translate(-220.179 -125.006)" fill="#455a64"/>
      <path id="Path_2024" data-name="Path 2024" d="M398.077,220.413h0l-.752-.451h0L389.2,215.3h0l-.9-.451L417.932,197.7l38.055,21.961-29.632,17Z" transform="translate(-230.363 -132.87)" fill="#0084ff"/>
      <path id="Path_2025" data-name="Path 2025" d="M388.5,209.1h0l.752.451h0l8.122,4.663h0l.752.451h0l28.278,16.4a.806.806,0,0,0-.451.6v10.228c0,.15,0,.15.15.3h0L388.05,220.231h0c-.15,0-.15-.15-.15-.3V209.7Z" transform="translate(-230.564 -127.123)" fill="#0084ff"/>
      <path id="Path_2026" data-name="Path 2026" d="M413.4,230.049c0-.3.15-.6.451-.6L443.483,212.3v.9L414.3,230.049v9.326l29.181-16.847v.9l-29.632,17.147h-.3c-.15,0-.15-.15-.15-.3Z" transform="translate(-217.708 -125.51)" fill="#0084ff"/>
      <path id="Path_2027" data-name="Path 2027" d="M398.077,220.413h0l-.752-.451h0L389.2,215.3h0l-.9-.451L417.932,197.7l38.055,21.961-29.632,17Z" transform="translate(-230.363 -132.87)" opacity="0.2"/>
      <path id="Path_2028" data-name="Path 2028" d="M388.5,209.1h0l.752.451h0l8.122,4.663h0l.752.451h0l28.278,16.4a.806.806,0,0,0-.451.6v10.228c0,.15,0,.15.15.3h0L388.05,220.231h0c-.15,0-.15-.15-.15-.3V209.7Z" transform="translate(-230.564 -127.123)" opacity="0.4"/>
      <path id="Path_2029" data-name="Path 2029" d="M413.4,230.049c0-.3.15-.6.451-.6L443.483,212.3v.9L414.3,230.049v9.326l29.181-16.847v.9l-29.632,17.147h-.3c-.15,0-.15-.15-.15-.3Z" transform="translate(-217.708 -125.51)" opacity="0.3"/>
      <path id="Path_2030" data-name="Path 2030" d="M441.276,213.6v7.521L413.9,237.065v-7.671Z" transform="translate(-217.456 -124.854)" fill="#e0e0e0"/>
      <path id="Path_2031" data-name="Path 2031" d="M441.276,213.6v7.521L413.9,237.065v-7.671Z" transform="translate(-217.456 -124.854)" fill="#fff" opacity="0.6"/>
      <path id="Path_2032" data-name="Path 2032" d="M443.081,219.453l-1.8-1.053v.3L413.9,234.645V236.3Z" transform="translate(-217.456 -122.434)" fill="#0084ff"/>
      <path id="Path_2033" data-name="Path 2033" d="M443.081,219.453l-1.8-1.053v.3L413.9,234.645V236.3Z" transform="translate(-217.456 -122.434)" opacity="0.4"/>
      <path id="Path_2034" data-name="Path 2034" d="M388.451,214.847h0L418.083,197.7l38.055,21.961v.9L426.958,237.41v7.671l27.376-15.944v-.451l1.805,1.053v.9l-29.632,17.147h-.3L388.15,225.828h0c-.15,0-.15-.15-.15-.3V215.3Z" transform="translate(-230.514 -132.871)" fill="#fff" opacity="0.1"/>
      <path id="Path_2035" data-name="Path 2035" d="M418.51,231.975l.6-2.407,2.256.6c-2.557-2.407-.752-5.415-3.61-7.07l-2.858,1.655C417.608,226.86,416.1,229.117,418.51,231.975Z" transform="translate(-216.952 -120.065)" fill="#0084ff"/>
      <g id="Group_3728" data-name="Group 3728" transform="translate(197.948 103.035)" opacity="0.2">
        <path id="Path_2036" data-name="Path 2036" d="M418.51,231.975l.6-2.407,2.256.6c-2.557-2.407-.752-5.415-3.61-7.07l-2.858,1.655C417.608,226.86,416.1,229.117,418.51,231.975Z" transform="translate(-414.9 -223.1)" fill="#fff"/>
      </g>
      <path id="Path_2037" data-name="Path 2037" d="M419.6,227.852l27.526-15.944-5.114-3.008L419.6,221.986Z" transform="translate(-214.582 -127.224)" fill="#263238"/>
      <path id="Path_2038" data-name="Path 2038" d="M447.429,213.169,419.9,229.113v-5.866l22.412-13.086,5.114-2.858v-.9L419,222.8v7.822l28.429-16.4Z" transform="translate(-214.885 -128.484)" fill="#455a64"/>
      <path id="Path_2039" data-name="Path 2039" d="M447.429,213.169,419.9,229.113v-5.866l22.412-13.086,5.114-2.858v-.9L419,222.8v7.822l28.429-16.4Z" transform="translate(-214.885 -128.484)" opacity="0.3"/>
      <path id="Path_2040" data-name="Path 2040" d="M447.429,213.169,419.9,229.113v-5.866l22.412-13.086,5.114-2.858v-.9L419,222.8v7.822l28.429-16.4Z" transform="translate(-214.885 -128.484)" fill="#fff" opacity="0.1"/>
      <path id="Path_2041" data-name="Path 2041" d="M432.713,225.316,391.8,201.4v7.972l40.913,23.766Z" transform="translate(-228.598 -131.005)" fill="#455a64"/>
      <path id="Path_2042" data-name="Path 2042" d="M432.713,225.316,391.8,201.4v7.972l40.913,23.766Z" transform="translate(-228.598 -131.005)" opacity="0.2"/>
      <path id="Path_2043" data-name="Path 2043" d="M432.713,225.316,391.8,201.4v7.972l40.913,23.766Z" transform="translate(-228.598 -131.005)" fill="#fff" opacity="0.1"/>
      <path id="Path_2044" data-name="Path 2044" d="M432.713,230.812l28.429-16.4L420.229,190.5,391.8,206.9Z" transform="translate(-228.598 -136.501)" fill="#455a64"/>
      <path id="Path_2045" data-name="Path 2045" d="M432.713,230.812l28.429-16.4L420.229,190.5,391.8,206.9Z" transform="translate(-228.598 -136.501)" fill="#fff" opacity="0.1"/>
      <path id="Path_2046" data-name="Path 2046" d="M446.374,207.3v5.866L419.6,228.659v-5.866Z" transform="translate(-214.582 -128.031)" fill="#e0e0e0"/>
      <path id="Path_2047" data-name="Path 2047" d="M446.374,207.3v5.866L419.6,228.659v-5.866Z" transform="translate(-214.582 -128.031)" fill="#fff" opacity="0.6"/>
      <path id="Path_2048" data-name="Path 2048" d="M416.17,194.276,398.421,204.5a.863.863,0,0,0-.3,1.053c0,.15.15.15.3.3l9.627,5.565a1.918,1.918,0,0,0,1.8,0L427.6,201.195a.863.863,0,0,0,.3-1.053c0-.15-.15-.15-.3-.3l-9.627-5.565A1.918,1.918,0,0,0,416.17,194.276Z" transform="translate(-225.442 -134.711)" fill="#455a64"/>
      <path id="Path_2049" data-name="Path 2049" d="M426.655,199.1,406.8,210.532l1.5.9L428.159,200Z" transform="translate(-221.036 -132.165)" fill="#455a64"/>
      <path id="Path_2050" data-name="Path 2050" d="M408.3,209.717l1.655.9,10.379-6.017-1.5-.9Z" transform="translate(-220.279 -129.846)" fill="#455a64"/>
      <path id="Path_2051" data-name="Path 2051" d="M468.072,237.831v-1.053l-.9-.451v-5.565l-4.813,2.708h0l5.565-3.309v-1.053l-8.574-4.964,3.61-2.106v-.9l-.752-.451V215.72l-2.106,1.2,2.858-1.655v-.9L422.044,190.6,393.616,207v7.822l.451.3-5.716,3.309h0a.806.806,0,0,0-.451.6v10.228c0,.15,0,.15.15.3h0l38.055,21.961h.3l1.2-.752,8.875,5.114,4.813-2.858a6.193,6.193,0,0,0,1.5,3.159l.6-2.407,2.256.6a5.2,5.2,0,0,1-1.5-3.159Z" transform="translate(-230.564 -136.45)" fill="#fff" opacity="0.3"/>
    </g>
    <g id="freepik--Plant--inject-2" transform="translate(583.898 373.38)">
      <path id="Path_2052" data-name="Path 2052" d="M468.8,328.4l-23.766.752-23.766-.752c-1.053,16.095,2.106,32.49,6.468,40.462h0a11.1,11.1,0,0,0,4.663,4.813c7.07,4.061,18.351,4.061,25.42,0a9.975,9.975,0,0,0,4.663-4.964C466.694,360.74,469.853,344.344,468.8,328.4Z" transform="translate(-393.291 -226.718)" fill="#fff"/>
      <path id="Path_2053" data-name="Path 2053" d="M461.694,323.261c9.326,5.415,9.326,14.139.15,19.554s-24.367,5.415-33.693,0-9.326-14.139-.15-19.554S452.368,317.846,461.694,323.261Z" transform="translate(-393.254 -231.357)" fill="#ebebeb"/>
      <path id="Path_2054" data-name="Path 2054" d="M456.376,324.359c7.22,4.212,7.37,10.98,0,15.192s-18.952,4.212-26.323,0-7.37-10.98,0-15.192S449.005,320.147,456.376,324.359Z" transform="translate(-391.546 -230.348)" fill="#e0e0e0"/>
      <g id="Group_3729" data-name="Group 3729" transform="translate(32.979 90.852)" opacity="0.15">
        <path id="Path_2055" data-name="Path 2055" d="M456.376,324.359c7.22,4.212,7.37,10.98,0,15.192s-18.952,4.212-26.323,0-7.37-10.98,0-15.192S449.005,320.147,456.376,324.359Z" transform="translate(-424.525 -321.2)"/>
      </g>
      <path id="Path_2056" data-name="Path 2056" d="M479.256,260.8c-53.7,17.6-54.15,53.4-42.117,78.969,3.008,5.114,12.334,7.972,20.306-23.916l-14.139,1.805,16.4-8.273,4.212-12.785-13.688,1.053,17.448-7.37A272.128,272.128,0,0,1,479.256,260.8Z" transform="translate(-388.404 -260.8)" fill="#0084ff"/>
      <path id="Path_2057" data-name="Path 2057" d="M479.256,260.8c-53.7,17.6-54.15,53.4-42.117,78.969,3.008,5.114,12.334,7.972,20.306-23.916l-14.139,1.805,16.4-8.273,4.212-12.785-13.688,1.053,17.448-7.37A272.128,272.128,0,0,1,479.256,260.8Z" transform="translate(-388.404 -260.8)" opacity="0.2"/>
      <path id="Path_2058" data-name="Path 2058" d="M479.256,260.8c-53.7,17.6-54.15,53.4-42.117,78.969,3.008,5.114,12.334,7.972,20.306-23.916l-14.139,1.805,16.4-8.273,4.212-12.785-13.688,1.053,17.448-7.37A272.128,272.128,0,0,1,479.256,260.8Z" transform="translate(-388.404 -260.8)" fill="#fff" opacity="0.2"/>
      <path id="Path_2059" data-name="Path 2059" d="M461.879,266.8c-28.278,21.51-30.835,46.027-22.863,71.749C436.158,315.986,433.15,293.123,461.879,266.8Z" transform="translate(-386.22 -257.775)" fill="#fff"/>
      <path id="Path_2060" data-name="Path 2060" d="M402.6,285.1c52.947,7.521,59.264,40.763,52.345,66.634-1.955,5.265-10.078,9.476-22.863-18.8l13.387-.6-16.546-4.964-6.017-11.131,12.936-1.354-17.448-3.911A247.08,247.08,0,0,0,402.6,285.1Z" transform="translate(-402.6 -248.549)" fill="#0084ff"/>
      <path id="Path_2061" data-name="Path 2061" d="M402.6,285.1c52.947,7.521,59.264,40.763,52.345,66.634-1.955,5.265-10.078,9.476-22.863-18.8l13.387-.6-16.546-4.964-6.017-11.131,12.936-1.354-17.448-3.911A247.08,247.08,0,0,0,402.6,285.1Z" transform="translate(-402.6 -248.549)" fill="#fff" opacity="0.2"/>
      <path id="Path_2062" data-name="Path 2062" d="M402.6,285.1c52.947,7.521,59.264,40.763,52.345,66.634-1.955,5.265-10.078,9.476-22.863-18.8l13.387-.6-16.546-4.964-6.017-11.131,12.936-1.354-17.448-3.911A247.08,247.08,0,0,0,402.6,285.1Z" transform="translate(-402.6 -248.549)" opacity="0.1"/>
      <path id="Path_2063" data-name="Path 2063" d="M413,289c29.933,15.342,36.4,37.755,33.242,63.025C445.039,330.515,444.136,308.7,413,289Z" transform="translate(-397.357 -246.583)" fill="#fff"/>
      <path id="Path_2064" data-name="Path 2064" d="M491.816,293.4c-48.584.752-58.061,30.083-54.6,54.15,1.2,4.964,8.122,9.627,22.713-14.44L447.895,331l15.643-2.707,6.769-9.326-11.432-2.707,16.095-1.655A226.442,226.442,0,0,1,491.816,293.4Z" transform="translate(-385.472 -244.364)" fill="#0084ff"/>
      <path id="Path_2065" data-name="Path 2065" d="M475.9,295.7c-28.729,10.379-37,30.083-37,53.1C442.36,329.544,445.669,309.99,475.9,295.7Z" transform="translate(-384.299 -243.205)" fill="#fff"/>
      <path id="Path_2066" data-name="Path 2066" d="M491.816,293.4c-48.584.752-58.061,30.083-54.6,54.15,1.2,4.964,8.122,9.627,22.713-14.44L447.895,331l15.643-2.707,6.769-9.326-11.432-2.707,16.095-1.655A226.442,226.442,0,0,1,491.816,293.4Z" transform="translate(-385.472 -244.364)" fill="#fff" opacity="0.2"/>
    </g>
    <path id="Path_2067" data-name="Path 2067" d="M52.627,210.367v-18.5L43,186.3v18.2h0v.451Z" transform="translate(0 75.02)" fill="#0084ff"/>
    <path id="Path_2068" data-name="Path 2068" d="M53.228,418.96l-.6-214.795L43,198.6l.6,214.343a3.826,3.826,0,0,0,1.655,3.61h0l9.476,5.866A3.782,3.782,0,0,1,53.228,418.96Z" transform="translate(0 81.221)" fill="#0084ff"/>
    <path id="Path_2069" data-name="Path 2069" d="M53.228,418.96l-.6-214.795L43,198.6l.6,214.343a3.826,3.826,0,0,0,1.655,3.61h0l9.476,5.866A3.782,3.782,0,0,1,53.228,418.96Z" transform="translate(0 81.221)" fill="#fff" opacity="0.2"/>
    <path id="Path_2070" data-name="Path 2070" d="M53.953,347.3c-.3.15-.752.451-1.053.6A8.624,8.624,0,0,1,53.953,347.3Z" transform="translate(4.991 156.19)" fill="#455a64"/>
    <path id="Path_2071" data-name="Path 2071" d="M52.5,347.7h0Z" transform="translate(4.638 156.392)" fill="#455a64"/>
    <path id="Path_2072" data-name="Path 2072" d="M51.1,347.6Z" transform="translate(4.084 156.341)" fill="#455a64"/>
    <path id="Path_2073" data-name="Path 2073" d="M52.627,261.782V251.1a12.705,12.705,0,0,1,5.716-9.927L381.888,54.358a3.965,3.965,0,0,1,4.061-.451l-9.627-5.866h0a4.241,4.241,0,0,0-4.212.3L48.716,235.309A12.706,12.706,0,0,0,43,245.237v10.68h0v.451l9.627,5.415Z" transform="translate(0 5.103)" fill="#0084ff"/>
    <path id="Path_2074" data-name="Path 2074" d="M52.627,261.782V251.1a12.705,12.705,0,0,1,5.716-9.927L381.888,54.358a3.965,3.965,0,0,1,4.061-.451l-9.627-5.866h0a4.241,4.241,0,0,0-4.212.3L48.716,235.309A12.706,12.706,0,0,0,43,245.237v10.68h0v.451l9.627,5.415Z" transform="translate(0 5.103)" fill="#fff" opacity="0.3"/>
    <path id="Path_2075" data-name="Path 2075" d="M52.627,210.367v-18.5L43,186.3v18.2h0v.451Z" transform="translate(0 75.02)" opacity="0.2"/>
    <path id="Path_2076" data-name="Path 2076" d="M52.627,210.367v-18.5L43,186.3v18.2h0v.451Z" transform="translate(0 75.02)" fill="#fff" opacity="0.2"/>
    <path id="Path_2077" data-name="Path 2077" d="M378.662,52.356c3.159-1.8,5.716-.3,5.716,3.309v10.68L49.4,259.781V249.1a12.706,12.706,0,0,1,5.716-9.928Z" transform="translate(3.227 7.104)" fill="#0084ff"/>
    <path id="Path_2078" data-name="Path 2078" d="M254.908,63.949c1.655-1.053,3.008-.15,3.008,1.805a6.857,6.857,0,0,1-3.008,5.265c-1.655,1.053-3.008.15-3.008-1.8A6.459,6.459,0,0,1,254.908,63.949Z" transform="translate(105.32 13.11)" fill="#fff"/>
    <path id="Path_2079" data-name="Path 2079" d="M261.108,60.449c1.655-1.053,3.008-.15,3.008,1.805a6.857,6.857,0,0,1-3.008,5.265c-1.655,1.053-3.008.15-3.008-1.805A6.623,6.623,0,0,1,261.108,60.449Z" transform="translate(108.446 11.346)" fill="#fff"/>
    <path id="Path_2080" data-name="Path 2080" d="M267.308,56.827c1.655-.9,3.008-.15,3.008,1.805a6.857,6.857,0,0,1-3.008,5.265c-1.655,1.053-3.008.15-3.008-1.8A6.857,6.857,0,0,1,267.308,56.827Z" transform="translate(111.572 9.553)" fill="#fff"/>
    <path id="Path_2081" data-name="Path 2081" d="M116.787,205.349c1.2-.752,2.407-.6,3.008.3l3.008,4.663c.6.9,1.8,1.053,3.008.3L384.377,61.4V79.9L49.4,273.337v-18.5l9.927-5.716a7.889,7.889,0,0,0,3.008-3.911l3.008-8.122a8.207,8.207,0,0,1,3.008-3.76Z" transform="translate(3.227 12.05)" fill="#e0e0e0"/>
    <path id="Path_2082" data-name="Path 2082" d="M384.377,73.7l.6,214.795a12.314,12.314,0,0,1-5.716,9.927L55.717,485.239c-3.159,1.805-5.716.3-5.716-3.309l-.6-214.795Z" transform="translate(3.227 18.251)" fill="#0084ff"/>
    <g id="Group_3730" data-name="Group 3730" transform="translate(52.627 91.951)" opacity="0.4">
      <path id="Path_2083" data-name="Path 2083" d="M384.377,73.7l.6,214.795a12.314,12.314,0,0,1-5.716,9.927L55.717,485.239c-3.159,1.805-5.716.3-5.716-3.309l-.6-214.795Z" transform="translate(-49.4 -73.7)" fill="#fff"/>
    </g>
    <path id="Path_2084" data-name="Path 2084" d="M359.7,69.2c2.256-1.354,4.061-.3,4.061,2.407a9.148,9.148,0,0,1-4.061,7.07L76.161,242.327c-2.256,1.354-4.061.3-4.061-2.407a9.148,9.148,0,0,1,4.061-7.07Z" transform="translate(14.671 15.684)" fill="#fff"/>
    <path id="Path_2085" data-name="Path 2085" d="M54.16,191.138a.282.282,0,0,1,.451,0,.946.946,0,0,1,0,.9L52.806,194.9l4.663-2.707c.15-.15.451-.15.451,0a.525.525,0,0,1,.15.3,1.522,1.522,0,0,1-.6,1.053l-4.663,2.708,1.8.9c.3.15.3.6,0,.9l-.451.451h-.451l-2.858-1.354L50.7,197h0v-.6h0l.15-.3,2.858-4.663C53.859,191.439,54.009,191.288,54.16,191.138Z" transform="translate(3.882 77.402)" fill="#e0e0e0"/>
    <path id="Path_2086" data-name="Path 2086" d="M61.011,187.2h.451l2.858,1.354.15.15h0v.6h0l-.15.15-2.858,4.663-.451.451a.282.282,0,0,1-.451,0,.946.946,0,0,1,0-.9l1.8-2.858L57.7,193.518a.282.282,0,0,1-.451,0c-.15-.15-.15-.15-.15-.3a1.016,1.016,0,0,1,.6-.9l4.663-2.708-1.805-.9c-.3-.15-.3-.6,0-.9A2.077,2.077,0,0,1,61.011,187.2Z" transform="translate(7.109 75.473)" fill="#e0e0e0"/>
    <path id="Path_2087" data-name="Path 2087" d="M67.259,183.954a2.868,2.868,0,0,1,1.955-.3l.451-.6.3-.3c.15,0,.15-.15.3-.15s.3.15.3.451l-.3,1.8a1.237,1.237,0,0,1-.6.9h-.15l-1.354.451c-.15,0-.3,0-.451-.3h0c0-.3,0-.6.3-.752l.15-.15a2.138,2.138,0,0,0-.9.3,4.759,4.759,0,0,0-2.106,3.61c0,1.354.9,1.8,2.106,1.2a4.349,4.349,0,0,0,1.805-2.256,2.076,2.076,0,0,1,.451-.6c.15,0,.15,0,.3-.15.3,0,.3.3.3.752a6.738,6.738,0,0,1-2.858,3.61c-1.8,1.053-3.159.15-3.159-1.805A6.628,6.628,0,0,1,67.259,183.954Z" transform="translate(10.638 73.154)" fill="#e0e0e0"/>
    <g id="Group_3731" data-name="Group 3731" transform="translate(54.582 268.427)" opacity="0.3">
      <path id="Path_2088" data-name="Path 2088" d="M54.16,191.138a.282.282,0,0,1,.451,0,.946.946,0,0,1,0,.9L52.806,194.9l4.663-2.707c.15-.15.451-.15.451,0a.525.525,0,0,1,.15.3,1.522,1.522,0,0,1-.6,1.053l-4.663,2.708,1.8.9c.3.15.3.6,0,.9l-.451.451h-.451l-2.858-1.354L50.7,197h0v-.6h0l.15-.3,2.858-4.663C53.859,191.439,54.009,191.288,54.16,191.138Z" transform="translate(-50.7 -191.025)"/>
    </g>
    <g id="Group_3732" data-name="Group 3732" transform="translate(64.209 262.673)" opacity="0.3">
      <path id="Path_2089" data-name="Path 2089" d="M61.011,187.2h.451l2.858,1.354.15.15h0v.6h0l-.15.15-2.858,4.663-.451.451a.282.282,0,0,1-.451,0,.946.946,0,0,1,0-.9l1.8-2.858L57.7,193.518a.282.282,0,0,1-.451,0c-.15-.15-.15-.15-.15-.3a1.016,1.016,0,0,1,.6-.9l4.663-2.708-1.805-.9c-.3-.15-.3-.6,0-.9A2.077,2.077,0,0,1,61.011,187.2Z" transform="translate(-57.1 -187.2)"/>
    </g>
    <g id="Group_3733" data-name="Group 3733" transform="translate(74.738 255.754)" opacity="0.3">
      <path id="Path_2090" data-name="Path 2090" d="M67.259,183.954a2.868,2.868,0,0,1,1.955-.3l.451-.6.3-.3c.15,0,.15-.15.3-.15s.3.15.3.451l-.3,1.8a1.237,1.237,0,0,1-.6.9h-.15l-1.354.451c-.15,0-.3,0-.451-.3h0c0-.3,0-.6.3-.752l.15-.15a2.138,2.138,0,0,0-.9.3,4.759,4.759,0,0,0-2.106,3.61c0,1.354.9,1.8,2.106,1.2a4.349,4.349,0,0,0,1.805-2.256,2.076,2.076,0,0,1,.451-.6c.15,0,.15,0,.3-.15.3,0,.3.3.3.752a6.738,6.738,0,0,1-2.858,3.61c-1.8,1.053-3.159.15-3.159-1.805A6.628,6.628,0,0,1,67.259,183.954Z" transform="translate(-64.1 -182.6)"/>
    </g>
    <path id="Path_2091" data-name="Path 2091" d="M387.6,87h0V68.347L129.038,217.56h-.15L387.454,68.347V57.667a4.075,4.075,0,0,0-1.655-3.76h0l-9.627-5.866h0a4.241,4.241,0,0,0-4.212.3L48.716,235.309A12.706,12.706,0,0,0,43,245.237v10.68h0v18.952l.6,214.343a3.826,3.826,0,0,0,1.655,3.61h0l9.476,5.866.3.15h0a4.488,4.488,0,0,0,3.911-.451l323.7-186.667a13.128,13.128,0,0,0,5.716-9.927ZM53.68,497.335v0Zm-.3-1.053a3.312,3.312,0,0,1-.15-1.2c0,.451.15.752.15,1.2ZM384.145,53.606h0Zm-1.053.3c-.451.15-.752.3-1.2.451a2.871,2.871,0,0,1,1.2-.451ZM53.529,246.891a14.427,14.427,0,0,0-1.053,4.212h0A12.384,12.384,0,0,1,53.529,246.891Zm-.9,14.891h0l9.927-5.866H62.4l-9.777,5.866Z" transform="translate(0 5.103)" fill="#fff" opacity="0.3"/>
    <path id="Path_2092" data-name="Path 2092" d="M227.386,186.364l-1.5,3.309L214.3,196.291v17.3l21.81-12.635V184.709l-.15-.9V181.4Z" transform="translate(86.363 72.549)" fill="#0084ff"/>
    <path id="Path_2093" data-name="Path 2093" d="M236.11,198.355,214.3,210.99v-1.955L236.11,196.4Z" transform="translate(86.363 80.112)" fill="#0084ff"/>
    <path id="Path_2094" data-name="Path 2094" d="M232.682,199.1v1.955L221.1,207.674v-1.955Z" transform="translate(89.792 81.473)" fill="#0084ff"/>
    <path id="Path_2095" data-name="Path 2095" d="M236.11,198.355,214.3,210.99v-1.955L236.11,196.4Z" transform="translate(86.363 80.112)" fill="#0084ff" opacity="0.2"/>
    <path id="Path_2096" data-name="Path 2096" d="M232.682,199.1v1.955L221.1,207.674v-1.955Z" transform="translate(89.792 81.473)" fill="#0084ff" opacity="0.2"/>
    <path id="Path_2097" data-name="Path 2097" d="M227.386,153.064l-1.5,3.309L214.3,162.991v17.3l21.81-12.635V151.409l-.15-.9V148.1Z" transform="translate(86.363 55.761)" fill="#0084ff"/>
    <path id="Path_2098" data-name="Path 2098" d="M236.11,165.055,214.3,177.54v-1.955L236.11,163.1Z" transform="translate(86.363 63.323)" fill="#0084ff"/>
    <path id="Path_2099" data-name="Path 2099" d="M232.682,165.8v1.955L221.1,174.374v-1.955Z" transform="translate(89.792 64.684)" fill="#0084ff"/>
    <path id="Path_2100" data-name="Path 2100" d="M236.11,165.055,214.3,177.54v-1.955L236.11,163.1Z" transform="translate(86.363 63.323)" fill="#0084ff" opacity="0.2"/>
    <path id="Path_2101" data-name="Path 2101" d="M232.682,165.8v1.955L221.1,174.374v-1.955Z" transform="translate(89.792 64.684)" fill="#0084ff" opacity="0.2"/>
    <path id="Path_2102" data-name="Path 2102" d="M236.11,131.755,214.3,144.24v-1.955L236.11,129.8Z" transform="translate(86.363 46.534)" fill="#0084ff"/>
    <path id="Path_2103" data-name="Path 2103" d="M232.682,132.5v1.955L221.1,141.074v-1.955Z" transform="translate(89.792 47.896)" fill="#0084ff"/>
    <path id="Path_2104" data-name="Path 2104" d="M236.11,131.755,214.3,144.24v-1.955L236.11,129.8Z" transform="translate(86.363 46.534)" fill="#0084ff" opacity="0.2"/>
    <path id="Path_2105" data-name="Path 2105" d="M232.682,132.5v1.955L221.1,141.074v-1.955Z" transform="translate(89.792 47.896)" fill="#0084ff" opacity="0.2"/>
    <path id="Path_2106" data-name="Path 2106" d="M198.486,203.064l-1.5,3.309L185.4,213.142v17.147L207.21,217.8v-16.4l-.15-.752V198.1Z" transform="translate(71.793 80.969)" fill="#0084ff"/>
    <path id="Path_2107" data-name="Path 2107" d="M207.21,215.155,185.4,227.64v-1.955L207.21,213.2Z" transform="translate(71.793 88.582)" fill="#0084ff"/>
    <path id="Path_2108" data-name="Path 2108" d="M203.782,215.9v1.805L192.2,224.474v-1.955Z" transform="translate(75.221 89.943)" fill="#0084ff"/>
    <path id="Path_2109" data-name="Path 2109" d="M207.21,215.155,185.4,227.64v-1.955L207.21,213.2Z" transform="translate(71.793 88.582)" fill="#0084ff" opacity="0.2"/>
    <path id="Path_2110" data-name="Path 2110" d="M203.782,215.9v1.805L192.2,224.474v-1.955Z" transform="translate(75.221 89.943)" fill="#0084ff" opacity="0.2"/>
    <path id="Path_2111" data-name="Path 2111" d="M198.486,169.764l-1.5,3.309L185.4,179.842v17.147L207.21,184.5v-16.4l-.15-.9V164.8Z" transform="translate(71.793 64.18)" fill="#0084ff"/>
    <path id="Path_2112" data-name="Path 2112" d="M207.21,181.705,185.4,194.34v-1.955L207.21,179.9Z" transform="translate(71.793 71.793)" fill="#0084ff"/>
    <path id="Path_2113" data-name="Path 2113" d="M203.782,182.6v1.8L192.2,191.023v-1.8Z" transform="translate(75.221 73.154)" fill="#0084ff"/>
    <path id="Path_2114" data-name="Path 2114" d="M207.21,181.705,185.4,194.34v-1.955L207.21,179.9Z" transform="translate(71.793 71.793)" fill="#0084ff" opacity="0.2"/>
    <path id="Path_2115" data-name="Path 2115" d="M203.782,182.6v1.8L192.2,191.023v-1.8Z" transform="translate(75.221 73.154)" fill="#0084ff" opacity="0.2"/>
    <path id="Path_2116" data-name="Path 2116" d="M207.21,148.4,185.4,161.04v-1.955L207.21,146.6Z" transform="translate(71.793 55.004)" fill="#0084ff"/>
    <path id="Path_2117" data-name="Path 2117" d="M203.782,149.2v1.955L192.2,157.774v-1.955Z" transform="translate(75.221 56.315)" fill="#0084ff"/>
    <path id="Path_2118" data-name="Path 2118" d="M207.21,148.4,185.4,161.04v-1.955L207.21,146.6Z" transform="translate(71.793 55.004)" fill="#0084ff" opacity="0.2"/>
    <path id="Path_2119" data-name="Path 2119" d="M203.782,149.2v1.955L192.2,157.774v-1.955Z" transform="translate(75.221 56.315)" fill="#0084ff" opacity="0.2"/>
    <path id="Path_2120" data-name="Path 2120" d="M169.586,219.864l-1.5,3.309L156.5,229.942v17.147l21.81-12.635-.15-16.245V214.9Z" transform="translate(57.223 89.439)" fill="#0084ff"/>
    <path id="Path_2121" data-name="Path 2121" d="M178.31,231.855,156.5,244.49v-1.955L178.31,229.9Z" transform="translate(57.223 97.001)" fill="#0084ff"/>
    <path id="Path_2122" data-name="Path 2122" d="M174.882,232.6v1.955L163.3,241.174v-1.955Z" transform="translate(60.651 98.363)" fill="#0084ff"/>
    <path id="Path_2123" data-name="Path 2123" d="M178.31,231.855,156.5,244.49v-1.955L178.31,229.9Z" transform="translate(57.223 97.001)" fill="#0084ff" opacity="0.2"/>
    <path id="Path_2124" data-name="Path 2124" d="M174.882,232.6v1.955L163.3,241.174v-1.955Z" transform="translate(60.651 98.363)" fill="#0084ff" opacity="0.2"/>
    <path id="Path_2125" data-name="Path 2125" d="M169.586,186.564l-1.5,3.309L156.5,196.491v17.3l21.81-12.635-.15-16.245V181.6Z" transform="translate(57.223 72.65)" fill="#0084ff"/>
    <path id="Path_2126" data-name="Path 2126" d="M178.31,198.555,156.5,211.04v-1.8L178.31,196.6Z" transform="translate(57.223 80.213)" fill="#0084ff"/>
    <path id="Path_2127" data-name="Path 2127" d="M174.882,199.3v1.955L163.3,207.874v-1.955Z" transform="translate(60.651 81.574)" fill="#0084ff"/>
    <path id="Path_2128" data-name="Path 2128" d="M178.31,198.555,156.5,211.04v-1.8L178.31,196.6Z" transform="translate(57.223 80.213)" fill="#0084ff" opacity="0.2"/>
    <path id="Path_2129" data-name="Path 2129" d="M174.882,199.3v1.955L163.3,207.874v-1.955Z" transform="translate(60.651 81.574)" fill="#0084ff" opacity="0.2"/>
    <path id="Path_2130" data-name="Path 2130" d="M178.31,165.255,156.5,177.74v-1.8L178.31,163.3Z" transform="translate(57.223 63.424)" fill="#0084ff"/>
    <path id="Path_2131" data-name="Path 2131" d="M174.882,166v1.955L163.3,174.574v-1.955Z" transform="translate(60.651 64.785)" fill="#0084ff"/>
    <path id="Path_2132" data-name="Path 2132" d="M178.31,165.255,156.5,177.74v-1.8L178.31,163.3Z" transform="translate(57.223 63.424)" fill="#0084ff" opacity="0.2"/>
    <path id="Path_2133" data-name="Path 2133" d="M174.882,166v1.955L163.3,174.574v-1.955Z" transform="translate(60.651 64.785)" fill="#0084ff" opacity="0.2"/>
    <path id="Path_2134" data-name="Path 2134" d="M140.686,236.714l-1.354,3.159L127.6,246.642v17.147L149.41,251.3V234.157l-.15-2.557Z" transform="translate(42.652 97.858)" fill="#0084ff"/>
    <path id="Path_2135" data-name="Path 2135" d="M149.41,248.655,127.6,261.14v-1.955L149.41,246.7Z" transform="translate(42.652 105.471)" fill="#0084ff"/>
    <path id="Path_2136" data-name="Path 2136" d="M145.982,249.4v1.955L134.4,257.974v-1.955Z" transform="translate(46.081 106.832)" fill="#0084ff"/>
    <path id="Path_2137" data-name="Path 2137" d="M149.41,248.655,127.6,261.14v-1.955L149.41,246.7Z" transform="translate(42.652 105.471)" fill="#0084ff" opacity="0.2"/>
    <path id="Path_2138" data-name="Path 2138" d="M145.982,249.4v1.955L134.4,257.974v-1.955Z" transform="translate(46.081 106.832)" fill="#0084ff" opacity="0.2"/>
    <path id="Path_2139" data-name="Path 2139" d="M140.686,203.264l-1.354,3.309L127.6,213.342v17.147L149.41,218V200.857l-.15-2.557Z" transform="translate(42.652 81.07)" fill="#0084ff"/>
    <path id="Path_2140" data-name="Path 2140" d="M149.41,215.355,127.6,227.84v-1.955L149.41,213.4Z" transform="translate(42.652 88.683)" fill="#0084ff"/>
    <path id="Path_2141" data-name="Path 2141" d="M145.982,216.1v1.8L134.4,224.674v-1.955Z" transform="translate(46.081 90.044)" fill="#0084ff"/>
    <path id="Path_2142" data-name="Path 2142" d="M149.41,215.355,127.6,227.84v-1.955L149.41,213.4Z" transform="translate(42.652 88.683)" fill="#0084ff" opacity="0.2"/>
    <path id="Path_2143" data-name="Path 2143" d="M145.982,216.1v1.8L134.4,224.674v-1.955Z" transform="translate(46.081 90.044)" fill="#0084ff" opacity="0.2"/>
    <path id="Path_2144" data-name="Path 2144" d="M149.41,182.055,127.6,194.54v-1.955L149.41,180.1Z" transform="translate(42.652 71.894)" fill="#0084ff"/>
    <path id="Path_2145" data-name="Path 2145" d="M145.982,182.8v1.805L134.4,191.223v-1.8Z" transform="translate(46.081 73.255)" fill="#0084ff"/>
    <path id="Path_2146" data-name="Path 2146" d="M149.41,182.055,127.6,194.54v-1.955L149.41,180.1Z" transform="translate(42.652 71.894)" fill="#0084ff" opacity="0.2"/>
    <path id="Path_2147" data-name="Path 2147" d="M145.982,182.8v1.805L134.4,191.223v-1.8Z" transform="translate(46.081 73.255)" fill="#0084ff" opacity="0.2"/>
    <path id="Path_2148" data-name="Path 2148" d="M287.5,128.515h0a9.823,9.823,0,0,0-8.122-5.415c-.3,0-.752.15-1.053.15L127.91,209.589a7.273,7.273,0,0,0-3.61,6.167V328.268c0,4.061,4.663,7.972,9.025,6.017h0c.15,0,.15,0,.3-.15l150.416-86.489a6.963,6.963,0,0,0,3.61-6.167V128.966A1.164,1.164,0,0,0,287.5,128.515Z" transform="translate(40.989 43.156)" fill="#455a64"/>
    <path id="Path_2149" data-name="Path 2149" d="M124.3,185.859V298.37c0,4.061,4.663,7.972,9.025,6.017h0a1.788,1.788,0,0,1-2.256-1.053c0-.15-.15-.451-.15-.6V190.221a7.455,7.455,0,0,1,1.2-3.911l-7.22-3.61A11.717,11.717,0,0,0,124.3,185.859Z" transform="translate(40.989 73.205)" fill="#fff" opacity="0.2"/>
    <path id="Path_2150" data-name="Path 2150" d="M279.127,123.2c-.3,0-.752.15-1.053.15L127.658,209.689A7.821,7.821,0,0,0,124.8,212.7l7.22,3.61a6.962,6.962,0,0,1,2.407-2.256l150.416-86.339a1.844,1.844,0,0,1,2.407.6v.15h0A9.564,9.564,0,0,0,279.127,123.2Z" transform="translate(41.241 43.207)" fill="#fff" opacity="0.3"/>
    <g id="Group_3734" data-name="Group 3734" transform="translate(182.887 257.507)" opacity="0.3">
      <path id="Path_2151" data-name="Path 2151" d="M269.269,184.269c2.106-1.2,3.76-.15,3.76,2.106v17.6a8.652,8.652,0,0,1-3.61,6.468L139.76,285.349c-2.106,1.2-3.76.15-3.76-2.106v-17.6a8.38,8.38,0,0,1,3.76-6.468Z" transform="translate(-136 -183.765)" fill="#fff"/>
    </g>
    <path id="Path_2152" data-name="Path 2152" d="M161.915,224.8v2.708l2.106-2.708,1.053,1.5-1.955,2.407,2.106.15-1.2,2.858-2.106-.15v2.557l-2.256,1.354v-2.707l-2.106,2.707-1.053-1.5,1.955-2.557-1.955-.15,1.053-2.858,2.106.3V226Z" transform="translate(57.223 94.43)" fill="#fff"/>
    <path id="Path_2153" data-name="Path 2153" d="M168.215,221.1v2.707l2.106-2.707,1.2,1.5-2.106,2.557,2.106.15-1.2,2.858-2.106-.3v2.707l-2.256,1.2.15-2.557L164,231.78l-1.2-1.5,1.955-2.407-1.955-.15,1.053-2.858,2.106.3v-2.708Z" transform="translate(60.399 92.565)" fill="#fff"/>
    <path id="Path_2154" data-name="Path 2154" d="M174.665,217.5l-.15,2.708,2.106-2.708,1.2,1.5-2.106,2.407,2.106.15-1.2,2.858-2.106-.15.15,2.557-2.407,1.354.15-2.708L170.3,228.18l-1.2-1.5,2.106-2.557-2.106-.15,1.2-2.858,2.106.3-.15-2.708Z" transform="translate(63.575 90.75)" fill="#fff"/>
    <path id="Path_2155" data-name="Path 2155" d="M180.965,213.8v2.707l2.106-2.707,1.053,1.5-1.955,2.557,1.955.15-1.053,2.858-2.106-.3v2.708l-2.256,1.2v-2.707L176.6,224.48l-1.2-1.5,2.106-2.407-2.106-.15,1.2-2.858,2.106.15v-2.557Z" transform="translate(66.751 88.884)" fill="#fff"/>
    <path id="Path_2156" data-name="Path 2156" d="M187.215,210.1v2.858l2.106-2.707,1.2,1.5-2.106,2.407,2.106.15-1.2,2.858-2.106-.15v2.557l-2.256,1.354v-2.707l-2.106,2.707-1.053-1.655,1.955-2.407-1.955-.15,1.053-2.858,2.106.3v-2.707Z" transform="translate(69.978 87.019)" fill="#fff"/>
    <path id="Path_2157" data-name="Path 2157" d="M193.515,206.5v2.707l2.106-2.707,1.2,1.5-2.106,2.557h2.106l-1.2,3.008-2.106-.3.15,2.707-2.407,1.2.15-2.557L189.3,217.18l-1.2-1.5,2.106-2.407-2.106-.15,1.2-2.858,2.106.15-.15-2.557Z" transform="translate(73.154 85.204)" fill="#fff"/>
    <path id="Path_2158" data-name="Path 2158" d="M199.965,202.9l-.15,2.707,2.106-2.707,1.2,1.5-1.955,2.407,1.955.15-1.2,2.858-2.106-.15.15,2.557-2.256,1.354v-2.707L195.6,213.58l-1.2-1.655,2.106-2.407-2.106-.15,1.2-2.858,2.106.3-.15-2.707Z" transform="translate(76.331 83.389)" fill="#fff"/>
    <path id="Path_2159" data-name="Path 2159" d="M206.215,199.2v2.707l2.106-2.707,1.053,1.5-1.955,2.557h2.106l-1.2,3.008-2.106-.3v2.557l-2.256,1.354v-2.707l-2.106,2.707-1.053-1.5,1.955-2.557H200.8l1.053-2.858,2.106.15v-2.557Z" transform="translate(79.557 81.523)" fill="#fff"/>
    <path id="Path_2160" data-name="Path 2160" d="M179.553,196.1h.15l-1.2,10.228h0l1.2-10.228Z" transform="translate(68.314 79.96)" fill="#455a64"/>
    <path id="Path_2161" data-name="Path 2161" d="M184.317,189.313a3.826,3.826,0,0,0-2.256.451A8.876,8.876,0,0,0,178,196.684a3.312,3.312,0,0,0,.15,1.2,2.084,2.084,0,0,0,1.655,1.655h.15l-1.2,10.228,6.468-3.76-1.2-8.875a8.805,8.805,0,0,0,1.5-2.557,17.489,17.489,0,0,0,.6-2.708,6.4,6.4,0,0,0-.3-1.655A3.646,3.646,0,0,0,184.317,189.313Z" transform="translate(68.062 76.519)" fill="#455a64"/>
    <path id="Path_2162" data-name="Path 2162" d="M184.317,189.313a3.826,3.826,0,0,0-2.256.451A8.876,8.876,0,0,0,178,196.684a3.312,3.312,0,0,0,.15,1.2,2.084,2.084,0,0,0,1.655,1.655h.15l-1.2,10.228,6.468-3.76-1.2-8.875a8.805,8.805,0,0,0,1.5-2.557,17.489,17.489,0,0,0,.6-2.708,6.4,6.4,0,0,0-.3-1.655A3.646,3.646,0,0,0,184.317,189.313Z" transform="translate(68.062 76.519)" opacity="0.3"/>
    <path id="Path_2163" data-name="Path 2163" d="M166,202.42v29.03l44.072-25.42-.15-29.03Zm25.571-1.354a8.805,8.805,0,0,1-1.5,2.557l1.2,8.875-6.468,3.76h0l1.2-10.228h-.15a1.915,1.915,0,0,1-1.655-1.655,2.932,2.932,0,0,1-.15-1.2,8.648,8.648,0,0,1,4.061-6.919,2.965,2.965,0,0,1,2.256-.451,2.39,2.39,0,0,1,1.5,1.2,5.406,5.406,0,0,1,.3,1.655c-.15.6-.3,1.5-.6,2.407Z" transform="translate(62.012 70.331)" fill="#455a64"/>
    <path id="Path_2164" data-name="Path 2164" d="M166,202.42v29.03l44.072-25.42-.15-29.03Zm25.571-1.354a8.805,8.805,0,0,1-1.5,2.557l1.2,8.875-6.468,3.76h0l1.2-10.228h-.15a1.915,1.915,0,0,1-1.655-1.655,2.932,2.932,0,0,1-.15-1.2,8.648,8.648,0,0,1,4.061-6.919,2.965,2.965,0,0,1,2.256-.451,2.39,2.39,0,0,1,1.5,1.2,5.406,5.406,0,0,1,.3,1.655c-.15.6-.3,1.5-.6,2.407Z" transform="translate(62.012 70.331)" fill="#fff" opacity="0.3"/>
    <path id="Path_2165" data-name="Path 2165" d="M174.365,204.673V190.684c0-7.671,5.415-17.147,12.184-21.058s12.184-.752,12.184,6.919v9.175L204,182.712v-9.175c0-11.131-7.822-15.493-17.448-9.927s-17.448,19.1-17.448,30.083v13.989Z" transform="translate(63.575 62.362)" fill="#455a64"/>
    <path id="Path_2166" data-name="Path 2166" d="M174.365,204.673V190.684c0-7.671,5.415-17.147,12.184-21.058s12.184-.752,12.184,6.919v9.175L204,182.712v-9.175c0-11.131-7.822-15.493-17.448-9.927s-17.448,19.1-17.448,30.083v13.989Z" transform="translate(63.575 62.362)" fill="#fff" opacity="0.4"/>
    <path id="Path_2167" data-name="Path 2167" d="M188.714,179.352,184.2,182.06a1.221,1.221,0,0,0-.6,1.2c0,.451.3.6.6.3l4.663-2.708a1.221,1.221,0,0,0,.6-1.2C189.466,179.2,189.165,179.052,188.714,179.352Z" transform="translate(70.886 71.438)" fill="#455a64"/>
    <path id="Path_2168" data-name="Path 2168" d="M189.684,177.9c.15-.451,0-.9-.3-.9l-4.061-.3c-.15,0-.3,0-.3.15a1.5,1.5,0,0,0-.6.752c-.15.451,0,.9.3.9l3.911.3c.15,0,.3,0,.3-.15A1.812,1.812,0,0,0,189.684,177.9Z" transform="translate(71.269 70.18)" fill="#455a64"/>
    <path id="Path_2169" data-name="Path 2169" d="M193.821,176.706c.15-.15.3-.15.3-.3l3.911-4.964a1.17,1.17,0,0,0,.3-1.2.458.458,0,0,0-.6,0,.324.324,0,0,0-.3.3l-3.911,4.964a1.17,1.17,0,0,0-.3,1.2C193.37,176.856,193.521,176.856,193.821,176.706Z" transform="translate(75.706 66.865)" fill="#455a64"/>
    <path id="Path_2170" data-name="Path 2170" d="M198.865,173.45l-4.663,2.707a1.368,1.368,0,0,0-.6,1.2c0,.451.3.6.6.3l4.663-2.708a1.368,1.368,0,0,0,.6-1.2.48.48,0,0,0-.451-.451C199.015,173.45,199.015,173.45,198.865,173.45Z" transform="translate(75.927 68.466)" fill="#455a64"/>
    <g id="Group_3735" data-name="Group 3735" transform="translate(254.486 236.99)" opacity="0.5">
      <path id="Path_2171" data-name="Path 2171" d="M188.714,179.352,184.2,182.06a1.221,1.221,0,0,0-.6,1.2c0,.451.3.6.6.3l4.663-2.708a1.221,1.221,0,0,0,.6-1.2C189.466,179.2,189.165,179.052,188.714,179.352Z" transform="translate(-183.6 -165.552)" fill="#fff"/>
      <path id="Path_2172" data-name="Path 2172" d="M189.684,177.9c.15-.451,0-.9-.3-.9l-4.061-.3c-.15,0-.3,0-.3.15a1.5,1.5,0,0,0-.6.752c-.15.451,0,.9.3.9l3.911.3c.15,0,.3,0,.3-.15A1.812,1.812,0,0,0,189.684,177.9Z" transform="translate(-183.216 -166.81)" fill="#fff"/>
      <path id="Path_2173" data-name="Path 2173" d="M193.821,176.706c.15-.15.3-.15.3-.3l3.911-4.964a1.17,1.17,0,0,0,.3-1.2.458.458,0,0,0-.6,0,.324.324,0,0,0-.3.3l-3.911,4.964a1.17,1.17,0,0,0-.3,1.2C193.37,176.856,193.521,176.856,193.821,176.706Z" transform="translate(-178.78 -170.125)" fill="#fff"/>
      <path id="Path_2174" data-name="Path 2174" d="M198.865,173.45l-4.663,2.707a1.368,1.368,0,0,0-.6,1.2c0,.451.3.6.6.3l4.663-2.708a1.368,1.368,0,0,0,.6-1.2.48.48,0,0,0-.451-.451C199.015,173.45,199.015,173.45,198.865,173.45Z" transform="translate(-178.558 -168.524)" fill="#fff"/>
    </g>
    <g id="freepik--Character--inject-2" transform="translate(189.656 205.437)">
      <path id="Path_2175" data-name="Path 2175" d="M409.466,415.452a14.585,14.585,0,0,0-5.265-10.379v-6.468L369.906,378.3l18.05-4.512A14.1,14.1,0,0,0,386,380.255a4.59,4.59,0,0,0,1.955,4.212h0l4.061,2.557h0a4.818,4.818,0,0,0,4.512-.451A14.681,14.681,0,0,0,403,375.291a4.555,4.555,0,0,0-1.805-4.061h0l-4.061-2.557h0a4.134,4.134,0,0,0-3.008-.3v-1.053l-2.256-.752-29.331,1.5v-5.265l.9-.451a4.821,4.821,0,0,0,2.858-4.061V324.3h-19.7v33.994a4.821,4.821,0,0,0,2.858,4.061l.9.451v4.362l-21.209-4.513-.9.3v3.911h0l-4.061,2.557h0a4.722,4.722,0,0,0-1.8,4.061,14.107,14.107,0,0,0,3.159,8.273l-20.457,9.175V395.9l-.9.451a14.681,14.681,0,0,0-6.468,11.281,4.59,4.59,0,0,0,1.955,4.212h0l4.061,2.557h.15a4.819,4.819,0,0,0,4.513-.451,14.681,14.681,0,0,0,6.468-11.281,4.555,4.555,0,0,0-1.805-4.061h0l-1.2-.752L350.8,382.06a2.962,2.962,0,0,0,1.5,2.256l-3.46,30.535v4.212a14.75,14.75,0,0,0-5.415,10.379,4.59,4.59,0,0,0,1.955,4.212h0l4.061,2.557h0a4.819,4.819,0,0,0,4.512-.451,14.681,14.681,0,0,0,6.468-11.281,4.556,4.556,0,0,0-1.805-4.061h0l-4.061-2.557h0a2.611,2.611,0,0,0-2.106-.451l4.512-31.888h0a9.447,9.447,0,0,0,2.858-.451h0l36.551,20.005-2.106,1.354h0a4.722,4.722,0,0,0-1.805,4.061,14.929,14.929,0,0,0,6.468,11.281,4.818,4.818,0,0,0,4.513.451h.15l4.061-2.557h0A4.829,4.829,0,0,0,409.466,415.452Zm-71.448-42.117,3.008,1.655-2.106.9a7.407,7.407,0,0,0-.9-2.557Zm-26.323,16.7,14.891-6.618h0l-20.156,9.025ZM339.221,377.7h0l11.131-4.964Z" transform="translate(-61.252 -60.843)" fill="#e0e0e0"/>
      <path id="Path_2176" data-name="Path 2176" d="M488.186,235.31a9.6,9.6,0,0,0-1.2-2.106c-.6-.6-1.053-1.2-1.655-1.805-.9-.752-1.8-1.5-2.858-2.256s-2.256-1.5-3.46-2.256a28.445,28.445,0,0,0-5.415-2.407,15.428,15.428,0,0,0-2.106-.6c-.752-.15-1.5-.451-2.256-.6-25.571-12.635-77.765-35.2-77.765-35.2-19.4-7.972-25.27-1.655-29.482,2.707-3.008,3.309-4.813,9.928-4.813,19.253a76.123,76.123,0,0,0,.752,10.228c.752,6.468,2.407,17.448,2.858,29.03.15,4.061,0,8.273-.15,12.334-.752,10.529-3.46,20.457-9.777,26.624-9.175,9.025-37.6,3.76-51.442.451h-.15a68.3,68.3,0,0,1-7.22-1.955h-.3c-6.769-3.76-15.342-.15-14.44,6.618a5.343,5.343,0,0,0,.3,1.5c0,.15.15.3.15.6a15.155,15.155,0,0,0,1.8,3.46c3.911,5.415,6.769,7.37,8.574,11.732.15.6.451,1.053.6,1.655,1.2,3.911,1.955,9.777,1.805,20.457l-7.37,3.76a10.806,10.806,0,0,0-3.76,3.61,17.254,17.254,0,0,0-2.707,9.326,29.377,29.377,0,0,0,.451,5.114c.15.6.3,1.053.451,1.655a13.93,13.93,0,0,0,6.017,7.671l80.322,42.718a18.5,18.5,0,0,0,15.192,1.053c.752-.3,1.354-.6,2.106-.9L437.5,378.205a28.346,28.346,0,0,0,14.59-18.05l32.189-118.979a4.326,4.326,0,0,0,3.008-1.354,3.8,3.8,0,0,0,.9-2.256v-.6C488.486,236.664,488.336,235.911,488.186,235.31ZM374.17,221.171c0-.3.15-.752.15-1.053.15-.752.3-1.354.451-2.106a8.8,8.8,0,0,0-.3,1.955,2.833,2.833,0,0,1-.3,1.2c-.15.451-.15,1.354-.3,2.106,0,.3-.15.6-.15.9l.15-.9a8.877,8.877,0,0,0,.3-2.106Zm4.813-17.147a52.986,52.986,0,0,0-2.256,6.317,25.907,25.907,0,0,1,1.053-3.159l.451-1.354a15.667,15.667,0,0,1,.752-1.8,13.977,13.977,0,0,1,.752-1.5c.3-.451.3-.9.6-1.354l-.451.9a4.661,4.661,0,0,0-.9,1.955Zm61.069,153.425L437.8,358.8c.752-.451,1.354-.9,2.256-1.354Zm-78.969-40.612,30.384,15.643-30.384-15.643Z" transform="translate(-71.833 -131.444)" opacity="0.2"/>
      <path id="Path_2177" data-name="Path 2177" d="M299.527,411.842h0l4.061,2.557h0a4.819,4.819,0,0,0,4.512-.451,14.681,14.681,0,0,0,6.468-11.281,4.555,4.555,0,0,0-1.805-4.061h0l-1.2-.752,38.958-15.794a2.962,2.962,0,0,0,1.5,2.256l-3.46,30.535v4.212a14.75,14.75,0,0,0-5.415,10.379,4.59,4.59,0,0,0,1.955,4.212h0l4.061,2.557h0a4.819,4.819,0,0,0,4.512-.451,14.681,14.681,0,0,0,6.468-11.281,4.555,4.555,0,0,0-1.805-4.061h0l-4.061-2.557h0a2.61,2.61,0,0,0-2.106-.451l4.512-31.888h0a9.447,9.447,0,0,0,2.858-.451h0l36.7,20.005-2.106,1.354h0a4.722,4.722,0,0,0-1.805,4.061A14.929,14.929,0,0,0,398.8,421.77a4.818,4.818,0,0,0,4.512.451h.15l4.061-2.557h0a4.71,4.71,0,0,0,2.106-4.212,14.585,14.585,0,0,0-5.265-10.379v-6.468L370.072,378.3l18.05-4.512a14.106,14.106,0,0,0-1.955,6.468,4.591,4.591,0,0,0,1.955,4.212h0l4.061,2.557h0a4.819,4.819,0,0,0,4.512-.451,14.681,14.681,0,0,0,6.468-11.281,4.555,4.555,0,0,0-1.805-4.061h0l-4.061-2.557h0a4.134,4.134,0,0,0-3.008-.3v-1.053l-2.256-.752-29.331,1.5v-5.265l.9-.451a4.822,4.822,0,0,0,2.858-4.061V324.3h-19.7v33.994a4.822,4.822,0,0,0,2.858,4.061l.9.451v4.362l-21.209-4.512-1.053.3v3.911h0l-4.061,2.557h0a4.722,4.722,0,0,0-1.8,4.061,14.107,14.107,0,0,0,3.159,8.273l-20.457,9.175V395.9l-.9.451a14.681,14.681,0,0,0-6.468,11.281A4.192,4.192,0,0,0,299.527,411.842Zm12.184-21.81,14.891-6.618h0l-20.156,9.025Zm26.323-16.7,3.008,1.655-2.106.9a7.406,7.406,0,0,0-.9-2.557Zm12.334-.6L339.237,377.7h0Z" transform="translate(-61.267 -60.843)" fill="#e0e0e0"/>
      <path id="Path_2178" data-name="Path 2178" d="M368.54,362.13l3.309-5.565-4.212-2.707h0a4.379,4.379,0,0,0-4.663.451,14.681,14.681,0,0,0-6.468,11.281,4.59,4.59,0,0,0,1.955,4.212h0l4.212,2.707,3.46-5.866A32.875,32.875,0,0,0,368.54,362.13Z" transform="translate(-31.607 -46.178)" fill="#37474f"/>
      <path id="Path_2179" data-name="Path 2179" d="M365.668,356.006c3.61-2.106,6.468-.451,6.468,3.76a14.929,14.929,0,0,1-6.468,11.281c-3.61,2.106-6.468.451-6.468-3.76A14.929,14.929,0,0,1,365.668,356.006Z" transform="translate(-30.239 -45.318)" fill="#455a64"/>
      <path id="Path_2180" data-name="Path 2180" d="M318.409,361.03l-3.309-5.565,4.212-2.707h0a4.379,4.379,0,0,1,4.663.451,14.681,14.681,0,0,1,6.468,11.281,4.409,4.409,0,0,1-2.106,4.212h0l-4.212,2.707-3.159-6.017A15.841,15.841,0,0,1,318.409,361.03Z" transform="translate(-52.473 -46.732)" fill="#37474f"/>
      <path id="Path_2181" data-name="Path 2181" d="M320.468,355.006c-3.61-2.106-6.468-.451-6.468,3.76a14.929,14.929,0,0,0,6.468,11.281c3.61,2.106,6.468.451,6.468-3.76A14.44,14.44,0,0,0,320.468,355.006Z" transform="translate(-53.027 -45.822)" fill="#455a64"/>
      <path id="Path_2182" data-name="Path 2182" d="M332.85,348.9h12.033v20.757h0a2.988,2.988,0,0,1-1.805,2.407,9.558,9.558,0,0,1-8.574,0,2.988,2.988,0,0,1-1.805-2.407h0Z" transform="translate(-43.6 -48.44)" fill="#ebebeb"/>
      <path id="Path_2183" data-name="Path 2183" d="M372.387,352.8v4.964L340.8,365.736V355.207Z" transform="translate(-39.516 -46.474)" fill="#e0e0e0"/>
      <path id="Path_2184" data-name="Path 2184" d="M372.387,353.052l-2.256-.752L340.8,353.8v1.655Z" transform="translate(-39.516 -46.726)" fill="#f5f5f5"/>
      <path id="Path_2185" data-name="Path 2185" d="M365.009,385.53l-3.309-5.565,4.212-2.707h0a4.379,4.379,0,0,1,4.663.451,14.681,14.681,0,0,1,6.468,11.281,4.409,4.409,0,0,1-2.106,4.212h0l-4.212,2.707-3.46-5.866A42.063,42.063,0,0,1,365.009,385.53Z" transform="translate(-28.979 -34.38)" fill="#37474f"/>
      <path id="Path_2186" data-name="Path 2186" d="M366.968,379.506c-3.61-2.106-6.468-.451-6.468,3.76a14.929,14.929,0,0,0,6.468,11.281c3.61,2.106,6.468.451,6.468-3.76A13.677,13.677,0,0,0,366.968,379.506Z" transform="translate(-29.584 -33.47)" fill="#455a64"/>
      <path id="Path_2187" data-name="Path 2187" d="M339.94,394.93l3.309-5.565-4.212-2.707h0a4.379,4.379,0,0,0-4.663.451,14.681,14.681,0,0,0-6.468,11.281,4.59,4.59,0,0,0,1.955,4.212h0l4.212,2.707,3.46-5.866A21.948,21.948,0,0,0,339.94,394.93Z" transform="translate(-46.026 -29.641)" fill="#37474f"/>
      <path id="Path_2188" data-name="Path 2188" d="M337.168,388.906c3.61-2.106,6.468-.451,6.468,3.76a14.929,14.929,0,0,1-6.468,11.281c-3.61,2.106-6.468.451-6.468-3.76A14.44,14.44,0,0,1,337.168,388.906Z" transform="translate(-44.608 -28.731)" fill="#455a64"/>
      <path id="Path_2189" data-name="Path 2189" d="M309.64,380.43l3.309-5.565-4.212-2.707h0a4.379,4.379,0,0,0-4.663.451,14.681,14.681,0,0,0-6.468,11.281,4.59,4.59,0,0,0,1.955,4.212h0l4.212,2.707,3.46-5.866A21.946,21.946,0,0,0,309.64,380.43Z" transform="translate(-61.302 -36.952)" fill="#37474f"/>
      <path id="Path_2190" data-name="Path 2190" d="M306.868,374.406c3.61-2.106,6.468-.451,6.468,3.76a14.93,14.93,0,0,1-6.468,11.281c-3.61,2.106-6.468.451-6.468-3.76A13.678,13.678,0,0,1,306.868,374.406Z" transform="translate(-59.884 -36.041)" fill="#455a64"/>
      <path id="Path_2191" data-name="Path 2191" d="M380.967,383.272v7.972L338.7,368.531V357.4Z" transform="translate(-40.575 -44.155)" fill="#e0e0e0"/>
      <path id="Path_2192" data-name="Path 2192" d="M383.374,382.12,341.107,357l-2.407.6,42.267,25.872Z" transform="translate(-40.575 -44.357)" fill="#f5f5f5"/>
      <path id="Path_2193" data-name="Path 2193" d="M369.207,381.672l-2.407,1.354v-7.972l2.407-1.354Z" transform="translate(-26.408 -35.937)" fill="#f0f0f0"/>
      <path id="Path_2194" data-name="Path 2194" d="M338.514,357.4,333.4,398.313v7.22l5.114-36.7Z" transform="translate(-43.247 -44.155)" fill="#e0e0e0"/>
      <rect id="Rectangle_2118" data-name="Rectangle 2118" width="3.008" height="7.37" transform="translate(287.145 354.158)" fill="#f0f0f0"/>
      <path id="Path_2195" data-name="Path 2195" d="M331.4,398.313l4.663-40.913h3.46l-5.114,40.913Z" transform="translate(-44.255 -44.155)" fill="#f5f5f5"/>
      <path id="Path_2196" data-name="Path 2196" d="M303.6,376.054v7.671l43.922-17.9V356.5Z" transform="translate(-58.271 -44.609)" fill="#e0e0e0"/>
      <path id="Path_2197" data-name="Path 2197" d="M302.4,376.471l1.805,1.053v-7.671L302.4,368.8Z" transform="translate(-58.876 -38.407)" fill="#f0f0f0"/>
      <path id="Path_2198" data-name="Path 2198" d="M309.319,374.5l-5.114,2.256-1.805-1.053L348.127,355.1v2.106Z" transform="translate(-58.876 -45.314)" fill="#f5f5f5"/>
      <path id="Path_2199" data-name="Path 2199" d="M318,350v5.114l12.785,6.769,9.476-4.212v-2.106Z" transform="translate(-51.011 -47.886)" fill="#e0e0e0"/>
      <path id="Path_2200" data-name="Path 2200" d="M318,350.1l1.053-.3,21.209,4.512v1.354Z" transform="translate(-51.011 -47.987)" fill="#f5f5f5"/>
      <path id="Path_2201" data-name="Path 2201" d="M330.2,324.3h19.7v33.994h0a5.119,5.119,0,0,1-2.858,4.061,15.3,15.3,0,0,1-13.989,0,4.821,4.821,0,0,1-2.858-4.061h0V324.3Z" transform="translate(-44.86 -60.843)" fill="#e0e0e0"/>
      <path id="Path_2202" data-name="Path 2202" d="M279.526,321.527a13.573,13.573,0,0,0,4.212,4.061l80.322,42.718a18.967,18.967,0,0,0,17.3.15l56.256-28.579a28.346,28.346,0,0,0,14.59-18.05L479.279,221.5l1.354.451a15.1,15.1,0,0,0,3.61.6h.15L452.2,341.532a28.721,28.721,0,0,1-14.59,18.05l-56.256,28.579a18.967,18.967,0,0,1-17.3-.15l-80.322-42.718C275.766,340.63,275.014,328.446,279.526,321.527Z" transform="translate(-71.801 -112.671)" fill="#0084ff"/>
      <path id="Path_2203" data-name="Path 2203" d="M279.526,321.527a13.573,13.573,0,0,0,4.212,4.061l80.322,42.718a18.967,18.967,0,0,0,17.3.15l56.256-28.579a28.346,28.346,0,0,0,14.59-18.05L479.279,221.5l1.354.451a15.1,15.1,0,0,0,3.61.6h.15L452.2,341.532a28.721,28.721,0,0,1-14.59,18.05l-56.256,28.579a18.967,18.967,0,0,1-17.3-.15l-80.322-42.718C275.766,340.63,275.014,328.446,279.526,321.527Z" transform="translate(-71.801 -112.671)" opacity="0.3"/>
      <path id="Path_2204" data-name="Path 2204" d="M282.31,295.633,340.521,265.7l76.712,39.409c-2.557.6-4.964,1.053-7.521,1.655-6.618,1.354-13.387,2.858-19.1,6.318s-10.379,9.627-10.379,16.245l2.106,15.794h0l-1.805.9a18.967,18.967,0,0,1-17.3-.15l-80.322-42.718a13.572,13.572,0,0,1-4.212-4.061A11.364,11.364,0,0,1,282.31,295.633Z" transform="translate(-70.824 -90.387)" fill="#0084ff"/>
      <path id="Path_2205" data-name="Path 2205" d="M282.31,295.633,340.521,265.7l76.712,39.409c-2.557.6-4.964,1.053-7.521,1.655-6.618,1.354-13.387,2.858-19.1,6.318s-10.379,9.627-10.379,16.245l2.106,15.794h0l-1.805.9a18.967,18.967,0,0,1-17.3-.15l-80.322-42.718a13.572,13.572,0,0,1-4.212-4.061A11.364,11.364,0,0,1,282.31,295.633Z" transform="translate(-70.824 -90.387)" opacity="0.1"/>
      <path id="Path_2206" data-name="Path 2206" d="M286.7,286.69s46.78,13.688,59.114,1.655c15.342-15.042,8.875-53.1,7.07-67.988s0-25.27,4.061-29.482,10.078-10.68,29.482-2.708c-19.554,10.078-22.111,57.91-15.944,77.164-15.342,15.794-14.29,40.312-14.59,51.593,0,0-39.86,9.777-60.768,21.209Z" transform="translate(-66.791 -131.382)" fill="#0084ff"/>
      <path id="Path_2207" data-name="Path 2207" d="M286.7,286.69s46.78,13.688,59.114,1.655c15.342-15.042,8.875-53.1,7.07-67.988s0-25.27,4.061-29.482,10.078-10.68,29.482-2.708c-19.554,10.078-22.111,57.91-15.944,77.164-15.342,15.794-14.29,40.312-14.59,51.593,0,0-39.86,9.777-60.768,21.209Z" transform="translate(-66.791 -131.382)" fill="#fff" opacity="0.1"/>
      <path id="Path_2208" data-name="Path 2208" d="M300.138,304.182l-9.627-5.114c0-26.323-3.911-23.766-11.131-33.994s3.911-16.7,12.184-12.184S303.3,271.24,300.138,304.182Z" transform="translate(-71.655 -97.582)" fill="#0084ff"/>
      <path id="Path_2209" data-name="Path 2209" d="M300.138,304.182l-9.627-5.114c0-26.323-3.911-23.766-11.131-33.994s3.911-16.7,12.184-12.184S303.3,271.24,300.138,304.182Z" transform="translate(-71.655 -97.582)" fill="#fff" opacity="0.2"/>
      <path id="Path_2210" data-name="Path 2210" d="M355.521,186.8s52.345,22.713,77.765,35.2l-1.805,9.326L348,193.418A22.79,22.79,0,0,1,355.521,186.8Z" transform="translate(-35.886 -130.165)" fill="#0084ff"/>
      <path id="Path_2211" data-name="Path 2211" d="M355.521,186.8s52.345,22.713,77.765,35.2l-1.805,9.326L348,193.418A22.79,22.79,0,0,1,355.521,186.8Z" transform="translate(-35.886 -130.165)" fill="#fff" opacity="0.1"/>
      <path id="Path_2212" data-name="Path 2212" d="M347.39,261.745c-5.265-16.4-4.212-53.7,8.423-70.545l83.481,37.9-19.1,95.665-30.234,18.05L332.8,313.489C333.1,302.057,331.9,277.539,347.39,261.745Z" transform="translate(-43.549 -127.947)" fill="#0084ff"/>
      <path id="Path_2213" data-name="Path 2213" d="M377.657,251.007c-1.354-.752-2.557-.15-2.557,1.5a5.551,5.551,0,0,0,2.557,4.362c1.354.752,2.557.15,2.557-1.5A5.55,5.55,0,0,0,377.657,251.007Z" transform="translate(-22.223 -97.956)" fill="#0084ff"/>
      <path id="Path_2214" data-name="Path 2214" d="M369.057,245.907c-1.354-.752-2.557-.15-2.557,1.5a5.55,5.55,0,0,0,2.557,4.362c1.354.752,2.557.15,2.557-1.5A6.062,6.062,0,0,0,369.057,245.907Z" transform="translate(-26.559 -100.527)" fill="#0084ff"/>
      <path id="Path_2215" data-name="Path 2215" d="M360.457,240.929c-1.354-.9-2.557-.15-2.557,1.5a5.55,5.55,0,0,0,2.557,4.362c1.354.9,2.557.15,2.557-1.5A5.188,5.188,0,0,0,360.457,240.929Z" transform="translate(-30.895 -103.07)" fill="#0084ff"/>
      <path id="Path_2216" data-name="Path 2216" d="M351.857,235.807c-1.354-.752-2.557-.15-2.557,1.5a5.654,5.654,0,0,0,2.557,4.513c1.354.752,2.557.15,2.557-1.5A5.653,5.653,0,0,0,351.857,235.807Z" transform="translate(-35.23 -105.619)" fill="#0084ff"/>
      <g id="Group_3736" data-name="Group 3736" transform="translate(314.07 129.868)" opacity="0.2">
        <path id="Path_2217" data-name="Path 2217" d="M377.657,251.007c-1.354-.752-2.557-.15-2.557,1.5a5.551,5.551,0,0,0,2.557,4.362c1.354.752,2.557.15,2.557-1.5A5.55,5.55,0,0,0,377.657,251.007Z" transform="translate(-336.293 -227.824)" fill="#fff"/>
        <path id="Path_2218" data-name="Path 2218" d="M369.057,245.907c-1.354-.752-2.557-.15-2.557,1.5a5.55,5.55,0,0,0,2.557,4.362c1.354.752,2.557.15,2.557-1.5A6.062,6.062,0,0,0,369.057,245.907Z" transform="translate(-340.628 -230.395)" fill="#fff"/>
        <path id="Path_2219" data-name="Path 2219" d="M360.457,240.929c-1.354-.9-2.557-.15-2.557,1.5a5.55,5.55,0,0,0,2.557,4.362c1.354.9,2.557.15,2.557-1.5A5.188,5.188,0,0,0,360.457,240.929Z" transform="translate(-344.964 -232.938)" fill="#fff"/>
        <path id="Path_2220" data-name="Path 2220" d="M351.857,235.807c-1.354-.752-2.557-.15-2.557,1.5a5.654,5.654,0,0,0,2.557,4.513c1.354.752,2.557.15,2.557-1.5A5.653,5.653,0,0,0,351.857,235.807Z" transform="translate(-349.3 -235.487)" fill="#fff"/>
      </g>
      <path id="Path_2221" data-name="Path 2221" d="M356.579,338.3c5.716-3.46,12.485-4.964,19.1-6.317,2.557-.451,5.114-1.053,7.521-1.655a47.609,47.609,0,0,0,11.732-4.212c9.175-5.114,15.342-14.59,18.351-24.819s3.008-20.908,2.407-31.437-1.955-21.058-1.655-31.587c.15-6.167,1.053-12.635,5.265-17.147s11.131-6.017,17.448-5.265a38.884,38.884,0,0,1,6.017,1.354l2.708,3.309-1.053,3.911L417.347,324.763a28.506,28.506,0,0,1-12.485,16.7,15.033,15.033,0,0,1-2.106,1.2L348.306,370.34,346.2,354.546C346.2,347.928,350.863,341.911,356.579,338.3Z" transform="translate(-36.793 -115.606)" fill="#0084ff"/>
      <path id="Path_2222" data-name="Path 2222" d="M356.579,338.3c5.716-3.46,12.485-4.964,19.1-6.317,2.557-.451,5.114-1.053,7.521-1.655a47.609,47.609,0,0,0,11.732-4.212c9.175-5.114,15.342-14.59,18.351-24.819s3.008-20.908,2.407-31.437-1.955-21.058-1.655-31.587c.15-6.167,1.053-12.635,5.265-17.147s11.131-6.017,17.448-5.265a38.884,38.884,0,0,1,6.017,1.354l2.708,3.309-1.053,3.911L417.347,324.763a28.506,28.506,0,0,1-12.485,16.7,15.033,15.033,0,0,1-2.106,1.2L348.306,370.34,346.2,354.546C346.2,347.928,350.863,341.911,356.579,338.3Z" transform="translate(-36.793 -115.606)" opacity="0.3"/>
      <path id="Path_2223" data-name="Path 2223" d="M353,330.636c19.855-5.716,39.56-6.468,46.78-20.757s7.671-33.994,4.061-68.44a55.711,55.711,0,0,1,.3-13.237c2.106-12.936,9.777-18.351,18.8-18.5a35.1,35.1,0,0,1,23.916,9.025,10.931,10.931,0,0,1,3.008,3.911,4.749,4.749,0,0,1-.6,4.663,4.326,4.326,0,0,1-3.008,1.354h-.15a10.112,10.112,0,0,1-3.61-.6l-1.354-.451c-2.407-.752-4.813-1.655-7.37-2.256a15.38,15.38,0,0,0-9.025,0,9.183,9.183,0,0,0-5.716,6.468c-8.423,27.376,2.256,57.008-7.22,79.57-7.671,20.607-34.445,29.181-53.247,35.348h0a11.857,11.857,0,0,0,4.663-3.46,7.928,7.928,0,0,0-.752-9.627A10.14,10.14,0,0,0,353,330.636Z" transform="translate(-33.365 -118.622)" fill="#0084ff"/>
      <path id="Path_2224" data-name="Path 2224" d="M353,330.636c19.855-5.716,39.56-6.468,46.78-20.757s7.671-33.994,4.061-68.44a55.711,55.711,0,0,1,.3-13.237c2.106-12.936,9.777-18.351,18.8-18.5a35.1,35.1,0,0,1,23.916,9.025,10.931,10.931,0,0,1,3.008,3.911,4.749,4.749,0,0,1-.6,4.663,4.326,4.326,0,0,1-3.008,1.354h-.15a10.112,10.112,0,0,1-3.61-.6l-1.354-.451c-2.407-.752-4.813-1.655-7.37-2.256a15.38,15.38,0,0,0-9.025,0,9.183,9.183,0,0,0-5.716,6.468c-8.423,27.376,2.256,57.008-7.22,79.57-7.671,20.607-34.445,29.181-53.247,35.348h0a11.857,11.857,0,0,0,4.663-3.46,7.928,7.928,0,0,0-.752-9.627A10.14,10.14,0,0,0,353,330.636Z" transform="translate(-33.365 -118.622)" fill="#fff" opacity="0.1"/>
      <path id="Path_2225" data-name="Path 2225" d="M345.041,304.244a27.394,27.394,0,0,1,5.114-8.875,14.511,14.511,0,0,1,8.724-5.114,10.521,10.521,0,0,1,9.476,3.008,7.928,7.928,0,0,1,.752,9.627,11.856,11.856,0,0,1-4.663,3.46,38.955,38.955,0,0,0-4.362,2.106,18.757,18.757,0,0,0-7.521,10.68,65.219,65.219,0,0,0-1.8,13.237v.9l-9.326-5.265A57.163,57.163,0,0,1,345.041,304.244Z" transform="translate(-39.244 -78.09)" fill="#0084ff"/>
      <path id="Path_2226" data-name="Path 2226" d="M345.041,304.244a27.394,27.394,0,0,1,5.114-8.875,14.511,14.511,0,0,1,8.724-5.114,10.521,10.521,0,0,1,9.476,3.008,7.928,7.928,0,0,1,.752,9.627,11.856,11.856,0,0,1-4.663,3.46,38.955,38.955,0,0,0-4.362,2.106,18.757,18.757,0,0,0-7.521,10.68,65.219,65.219,0,0,0-1.8,13.237v.9l-9.326-5.265A57.163,57.163,0,0,1,345.041,304.244Z" transform="translate(-39.244 -78.09)" fill="#fff" opacity="0.2"/>
      <path id="Path_2227" data-name="Path 2227" d="M488.154,235.31a10.933,10.933,0,0,0-3.008-3.911,34.155,34.155,0,0,0-16.095-8.122c-25.571-12.635-77.615-35.2-77.615-35.2a8.527,8.527,0,0,0-1.955,1.2,8.527,8.527,0,0,1,1.955-1.2c-19.4-7.972-25.27-1.655-29.482,2.708s-6.017,14.741-4.061,29.482,8.273,52.947-7.07,67.988C338.489,300.44,291.71,286.6,291.71,286.6c-8.423-4.663-19.4,1.8-12.184,12.184s11.131,7.671,11.131,33.994l-7.37,3.76a10.806,10.806,0,0,0-3.76,3.61c-4.513,6.919-3.76,19.1,4.212,23.766l80.322,42.718a18.967,18.967,0,0,0,17.3.15l56.256-28.579a28.346,28.346,0,0,0,14.59-18.05l32.189-118.979a4.326,4.326,0,0,0,3.008-1.354A4.107,4.107,0,0,0,488.154,235.31Zm-37.9,110.707c-.15.451-.451.752-.6,1.2a4.5,4.5,0,0,0,.6-1.2Zm-1.354,2.407-.9,1.354a7.059,7.059,0,0,0,.9-1.354ZM387.224,191.087a14.18,14.18,0,0,0-1.5,1.5l1.5-1.5Zm1.8-1.5a10.535,10.535,0,0,0-1.5,1.2,13.154,13.154,0,0,0,1.5-1.2Zm-5.114,5.114a19.047,19.047,0,0,1,1.655-1.955A22.508,22.508,0,0,1,383.915,194.7Zm-7.37,15.944a92.827,92.827,0,0,0-3.008,14.29,92.826,92.826,0,0,1,3.008-14.29Zm7.37-15.944a15.862,15.862,0,0,0-1.053,1.655C383.163,195.75,383.614,195.3,383.915,194.7Zm-1.2,1.655c-.3.6-.752,1.053-1.053,1.655a6.212,6.212,0,0,0,1.053-1.655Zm-1.053,1.8a54.831,54.831,0,0,0-5.114,12.334,62.806,62.806,0,0,1,5.114-12.334Zm-8.122,27.075c-.15.752-.15,1.5-.3,2.106a8.877,8.877,0,0,0,.3-2.106Zm-.3,2.707c0,.752-.15,1.354-.15,2.106,0-.752.15-1.354.15-2.106Zm-.3,2.557c0,.752-.15,1.354-.15,2.106a9.25,9.25,0,0,0,.15-2.106Zm-.15,2.256c-.15,2.256-.15,4.513-.3,6.618.15-2.106.3-4.212.3-6.618Zm-.3,7.521Zm2.557,23.315c0-.15-.15-.451-.15-.6C374.89,263.137,375.041,263.287,375.041,263.588Zm-.451-1.955c0-.3-.15-.451-.15-.752,0,.3.15.451.15.752Zm-.451-1.955c0-.3-.15-.6-.15-.9,0,.3.15.451.15.9Zm-.3-2.256-.15-.9Zm-.451-2.256c0-.3-.15-.6-.15-.9a1.908,1.908,0,0,1,.15.9Zm-.3-3.008-.15-1.053Zm-.15-2.557v-1.2a1.648,1.648,0,0,0,0,1.2Zm-.15-2.557v0Zm-.15-2.407v0ZM405.725,340h0l-44.674-23.014h0ZM381.358,387.23l1.805-.9,54.451-27.677a9.6,9.6,0,0,0,2.106-1.2,18.8,18.8,0,0,0,1.8-1.354,26.729,26.729,0,0,1-4.061,2.557Zm60.768-31.287a13.558,13.558,0,0,0,1.5-1.354,13.567,13.567,0,0,1-1.5,1.354Zm2.256-1.8,1.354-1.354a5.743,5.743,0,0,0-1.354,1.354Zm3.008-3.46c-.3.451-.752.9-1.053,1.354.3-.451.752-.9,1.053-1.354Zm3.61-6.167.451-.9a2.45,2.45,0,0,0-.451.9Z" transform="translate(-71.801 -131.444)" opacity="0.2"/>
      <path id="Path_2228" data-name="Path 2228" d="M343.686,349.857c9.175-3.911,21.81-19.4,27.977-27.225,7.972-9.927,7.07-31.587,5.265-41.365L298.561,275.1c-2.256,21.51-21.961,35.5-21.961,35.5Z" transform="translate(-71.883 -85.648)" fill="#263238"/>
      <path id="Path_2229" data-name="Path 2229" d="M225.8,372.3c.3,7.22,0,15.794,0,15.794l4.212.3a10.025,10.025,0,0,1,9.025,6.769l.15.3a4.05,4.05,0,0,0,4.964,2.407h0a3.723,3.723,0,0,0,2.407-2.106l2.256-18.2Z" transform="translate(-97.495 -36.643)" fill="#ffa8a7"/>
      <path id="Path_2230" data-name="Path 2230" d="M233.4,421.863c-10.98,4.663-27.977,5.565-34.9-5.565v3.008c6.919,11.281,23.916,10.379,34.9,5.565s8.574-12.334,18.5-16.546a26.719,26.719,0,0,0,9.627-6.017,29.9,29.9,0,0,1,.3-3.309,32.794,32.794,0,0,1-9.928,6.318C241.97,409.529,244.377,417.2,233.4,421.863Z" transform="translate(-111.258 -23.182)" fill="#37474f"/>
      <path id="Path_2231" data-name="Path 2231" d="M261.876,397.14a15.621,15.621,0,0,1,0-6.468,3.145,3.145,0,0,0-.451-2.858l-.9-.752-.451,3.309a3.723,3.723,0,0,1-2.407,2.106,4.119,4.119,0,0,1-4.964-2.407l-.15-.3A10.247,10.247,0,0,0,243.525,383l-4.212-.3a3.14,3.14,0,0,0-3.008,1.955c-4.362,10.529-15.493,22.412-23.916,27.827-6.317-.15-13.989,5.114-13.989,11.432v.6c6.919,11.281,23.916,10.379,34.9,5.565s8.574-12.334,18.5-16.546a32.792,32.792,0,0,0,9.927-6.318A32.361,32.361,0,0,0,261.876,397.14Z" transform="translate(-111.309 -31.399)" fill="#455a64"/>
      <path id="Path_2232" data-name="Path 2232" d="M231.139,400.853a1.406,1.406,0,0,0,1.955.15,1.285,1.285,0,0,0,.15-1.955,15.863,15.863,0,0,0-14.44-6.318,26.188,26.188,0,0,1-1.8,2.106A16.179,16.179,0,0,1,231.139,400.853Z" transform="translate(-101.931 -26.388)" fill="#fff"/>
      <path id="Path_2233" data-name="Path 2233" d="M234.19,397.7a1.406,1.406,0,0,0,1.955.15,1.285,1.285,0,0,0,.15-1.955,16.676,16.676,0,0,0-15.042-6.468c-.6.752-1.053,1.5-1.655,2.407C225.165,391.386,229.979,392.439,234.19,397.7Z" transform="translate(-100.621 -28.052)" fill="#fff"/>
      <path id="Path_2234" data-name="Path 2234" d="M228.089,404.041a1.406,1.406,0,0,0,1.955.15,1.285,1.285,0,0,0,.15-1.955,15.933,15.933,0,0,0-13.989-6.318c-.752.752-1.354,1.5-2.106,2.256A14.905,14.905,0,0,1,228.089,404.041Z" transform="translate(-103.393 -24.763)" fill="#fff"/>
      <path id="Path_2235" data-name="Path 2235" d="M212.489,402.5c-6.317-.15-13.989,5.114-13.989,11.432v.6c6.919,11.131,23.315,10.379,34.445,5.866C232.043,405.209,217.452,402.5,212.489,402.5Z" transform="translate(-111.258 -21.418)" fill="#fff"/>
      <path id="Path_2236" data-name="Path 2236" d="M225.29,407.041a1.387,1.387,0,0,0,2.106-1.8h0a15.933,15.933,0,0,0-13.989-6.318l-2.707,2.256C216.115,400.723,220.928,401.776,225.29,407.041Z" transform="translate(-105.108 -23.25)" fill="#fff"/>
      <path id="Path_2237" data-name="Path 2237" d="M274.9,381.6c.3,7.22,0,15.794,0,15.794l4.212.3a10.247,10.247,0,0,1,9.025,6.769l.15.3a4.05,4.05,0,0,0,4.964,2.407h0a3.723,3.723,0,0,0,2.407-2.106l1.955-18.351Z" transform="translate(-72.74 -31.954)" fill="#ffa8a7"/>
      <path id="Path_2238" data-name="Path 2238" d="M282.5,431.163c-10.98,4.663-27.827,5.565-34.9-5.565v3.008c7.07,11.281,23.916,10.379,34.9,5.565s8.574-12.334,18.5-16.546a26.718,26.718,0,0,0,9.627-6.017c0-.9.15-1.955.3-3.309A34.736,34.736,0,0,1,301,414.617C291.07,418.679,293.477,426.5,282.5,431.163Z" transform="translate(-86.504 -18.493)" fill="#37474f"/>
      <path id="Path_2239" data-name="Path 2239" d="M310.925,406.44a15.622,15.622,0,0,1,0-6.468,3.145,3.145,0,0,0-.451-2.858l-.752-.752-.451,3.309a3.723,3.723,0,0,1-2.407,2.106,4.119,4.119,0,0,1-4.964-2.407l-.15-.3a10.247,10.247,0,0,0-9.025-6.769l-4.212-.3a3.14,3.14,0,0,0-3.008,1.955c-4.362,10.529-15.493,22.412-23.916,27.827-6.317-.15-13.989,5.114-13.989,11.432v.6c7.07,11.281,23.916,10.379,34.9,5.565s8.574-12.334,18.5-16.546a32.793,32.793,0,0,0,9.927-6.317A37.685,37.685,0,0,0,310.925,406.44Z" transform="translate(-86.504 -26.711)" fill="#455a64"/>
      <path id="Path_2240" data-name="Path 2240" d="M280.189,410.153a1.406,1.406,0,0,0,1.955.15,1.426,1.426,0,0,0,.3-1.955h0A15.863,15.863,0,0,0,268,402.031a26.187,26.187,0,0,1-1.8,2.106A15.2,15.2,0,0,1,280.189,410.153Z" transform="translate(-77.127 -21.7)" fill="#fff"/>
      <path id="Path_2241" data-name="Path 2241" d="M283.24,407a1.406,1.406,0,0,0,1.955.15,1.426,1.426,0,0,0,.3-1.955h0a16.676,16.676,0,0,0-15.042-6.468c-.6.752-1.053,1.5-1.655,2.407C274.215,400.686,279.028,401.739,283.24,407Z" transform="translate(-75.816 -23.363)" fill="#fff"/>
      <path id="Path_2242" data-name="Path 2242" d="M277.189,413.341a1.387,1.387,0,0,0,2.106-1.8h0a15.934,15.934,0,0,0-13.989-6.318,28.886,28.886,0,0,0-2.106,2.256A14.771,14.771,0,0,1,277.189,413.341Z" transform="translate(-78.639 -20.074)" fill="#fff"/>
      <path id="Path_2243" data-name="Path 2243" d="M261.589,411.8c-6.317-.15-13.989,5.114-13.989,11.432v.6c6.919,11.131,23.315,10.379,34.445,5.866C281.143,414.359,266.552,411.652,261.589,411.8Z" transform="translate(-86.504 -16.73)" fill="#fff"/>
      <path id="Path_2244" data-name="Path 2244" d="M274.34,416.341a1.387,1.387,0,1,0,2.106-1.8h0a15.934,15.934,0,0,0-13.989-6.317c-.9.752-1.805,1.5-2.557,2.256C265.165,410.023,269.978,411.076,274.34,416.341Z" transform="translate(-80.303 -18.561)" fill="#fff"/>
      <path id="Path_2245" data-name="Path 2245" d="M269.732,358.59c-3.61,14.891-5.866,24.367-12.485,44.373,0,0-25.12,5.415-35.047-4.362L233.481,344Z" transform="translate(-99.31 -50.911)" fill="#263238"/>
      <path id="Path_2246" data-name="Path 2246" d="M307.255,356.6c-.9,15.343-.451,29.181-3.46,50.089,0,0-21.359,7.07-32.791-.9l-1.8-36.551Z" transform="translate(-75.614 -44.558)" fill="#263238"/>
      <path id="Path_2247" data-name="Path 2247" d="M388.231,328.007l-4.663-2.707v33.092L278.276,419.31V391.634l-4.663,2.707-4.813-2.707V524.451l4.813,2.707,4.663-2.707V429.689l105.292-60.768v89.347l4.663,2.707,4.663-2.707V325.3Z" transform="translate(-75.816 -60.339)" fill="#37474f"/>
      <path id="Path_2248" data-name="Path 2248" d="M149.976,333.919V306.092l-4.663,2.707-4.813-2.707V439.06l4.813,2.708,4.663-2.708V344.3l109.954-63.476v-5.114L255.268,273Z" transform="translate(-140.5 -86.706)" fill="#37474f"/>
      <path id="Path_2249" data-name="Path 2249" d="M143.7,297.707V430.676l4.663-2.708V295Z" transform="translate(-138.887 -75.615)" fill="#455a64"/>
      <path id="Path_2250" data-name="Path 2250" d="M145.313,297.707V430.676l-4.813-2.708V295Z" transform="translate(-140.5 -75.615)" fill="#37474f"/>
      <path id="Path_2251" data-name="Path 2251" d="M146.8,343.39l109.954-63.476V274.8L146.8,338.276Z" transform="translate(-137.324 -85.799)" fill="#455a64"/>
      <path id="Path_2252" data-name="Path 2252" d="M146.8,333.919,252.092,273l4.663,2.707L146.8,339.183Z" transform="translate(-137.324 -86.706)" fill="#37474f"/>
      <path id="Path_2253" data-name="Path 2253" d="M348.2,328.007V460.976l4.663-2.707V325.3Z" transform="translate(-35.785 -60.339)" fill="#455a64"/>
      <path id="Path_2254" data-name="Path 2254" d="M349.763,328.007V460.976l-4.663-2.707V325.3Z" transform="translate(-37.348 -60.339)" fill="#37474f"/>
      <path id="Path_2255" data-name="Path 2255" d="M272,372.108V504.925l4.663-2.708V369.4Z" transform="translate(-74.202 -38.105)" fill="#455a64"/>
      <path id="Path_2256" data-name="Path 2256" d="M273.613,372.108V504.925l-4.813-2.708V369.4Z" transform="translate(-75.816 -38.105)" fill="#37474f"/>
      <path id="Path_2257" data-name="Path 2257" d="M275.1,417.69l109.954-63.476V349.1L275.1,412.726Z" transform="translate(-72.639 -48.339)" fill="#455a64"/>
      <path id="Path_2258" data-name="Path 2258" d="M275.1,408.219,380.392,347.3l4.663,2.708L275.1,413.634Z" transform="translate(-72.639 -49.247)" fill="#37474f"/>
      <g id="Group_3737" data-name="Group 3737" transform="translate(192.984 264.961)" opacity="0.2">
        <path id="Path_2259" data-name="Path 2259" d="M348.2,328.007V460.976l4.663-2.707V325.3Z" transform="translate(-228.769 -325.3)" fill="#fff"/>
        <path id="Path_2260" data-name="Path 2260" d="M349.763,328.007V460.976l-4.663-2.707V325.3Z" transform="translate(-230.332 -325.3)" fill="#fff"/>
        <path id="Path_2261" data-name="Path 2261" d="M272,372.108V504.925l4.663-2.708V369.4Z" transform="translate(-267.187 -303.066)" fill="#fff"/>
        <path id="Path_2262" data-name="Path 2262" d="M273.613,372.108V504.925l-4.813-2.708V369.4Z" transform="translate(-268.8 -303.066)" fill="#fff"/>
        <path id="Path_2263" data-name="Path 2263" d="M275.1,417.69l109.954-63.476V349.1L275.1,412.726Z" transform="translate(-265.624 -313.301)" fill="#fff"/>
        <path id="Path_2264" data-name="Path 2264" d="M275.1,408.219,380.392,347.3l4.663,2.708L275.1,413.634Z" transform="translate(-265.624 -314.208)" fill="#fff"/>
      </g>
      <g id="Group_3738" data-name="Group 3738" transform="translate(0 186.294)" opacity="0.2">
        <path id="Path_2265" data-name="Path 2265" d="M143.7,297.707V430.676l4.663-2.708V295Z" transform="translate(-138.887 -261.908)" fill="#fff"/>
        <path id="Path_2266" data-name="Path 2266" d="M145.313,297.707V430.676l-4.813-2.708V295Z" transform="translate(-140.5 -261.908)" fill="#fff"/>
        <path id="Path_2267" data-name="Path 2267" d="M146.8,343.39l109.954-63.476V274.8L146.8,338.276Z" transform="translate(-137.324 -272.092)" fill="#fff"/>
        <path id="Path_2268" data-name="Path 2268" d="M146.8,333.919,252.092,273l4.663,2.707L146.8,339.183Z" transform="translate(-137.324 -273)" fill="#fff"/>
      </g>
      <path id="Path_2269" data-name="Path 2269" d="M457.578,355.066,259.931,240.9,140.5,309.791v12.485L338.3,436.893l119.28-69.041Z" transform="translate(-140.5 -102.89)" fill="#0084ff"/>
      <path id="Path_2270" data-name="Path 2270" d="M338.3,423.957,140.5,309.791,259.931,240.9,457.578,355.066Z" transform="translate(-140.5 -102.89)" fill="#0084ff"/>
      <path id="Path_2271" data-name="Path 2271" d="M338.3,413.8,140.5,299.185V286.7L338.3,400.866Z" transform="translate(-140.5 -79.799)" fill="#0084ff"/>
      <path id="Path_2272" data-name="Path 2272" d="M272,385.691,391.28,316.8v12.785L272,398.627Z" transform="translate(-74.202 -64.624)" fill="#0084ff"/>
      <path id="Path_2273" data-name="Path 2273" d="M338.3,423.957,140.5,309.791,259.931,240.9,457.578,355.066Z" transform="translate(-140.5 -102.89)" fill="#fff" opacity="0.3"/>
      <path id="Path_2274" data-name="Path 2274" d="M272,385.691,391.28,316.8v12.785L272,398.627Z" transform="translate(-74.202 -64.624)" fill="#fff" opacity="0.1"/>
      <path id="Path_2275" data-name="Path 2275" d="M338.3,413.8,140.5,299.185V286.7L338.3,400.866Z" transform="translate(-140.5 -79.799)" fill="#fff" opacity="0.2"/>
      <path id="Path_2276" data-name="Path 2276" d="M205.055,303.294l48.735-28.278a10.547,10.547,0,0,1,9.928,0l80.322,46.479a3.56,3.56,0,0,1,2.106,2.707h0v3.008h0v.6h0c-.15.3-.15.451-.3.752h0c-.15.3-.451.451-.6.752h0a3.148,3.148,0,0,1-.9.6l-48.885,28.429a5.339,5.339,0,0,1-1.354.6l-.6.15-.752.15-.9.15h-2.858c-.451,0-.752-.15-1.2-.15h-.15c-.3-.15-.6-.15-.9-.3h-.15c-.3-.15-.752-.3-1.053-.451l-80.322-46.479c-.3-.15-.6-.451-.9-.6-.15,0-.15-.15-.15-.3l-.451-.451c0-.15-.15-.15-.15-.3-.15-.15-.15-.3-.3-.451v-.3a.553.553,0,0,0-.15-.451V306.3A3.14,3.14,0,0,1,205.055,303.294Z" transform="translate(-108.939 -86.316)" fill="#e0e0e0"/>
      <path id="Path_2277" data-name="Path 2277" d="M346.146,313.2a1.908,1.908,0,0,1-.15.9h0c-.15.3-.15.451-.3.752h0c-.15.3-.451.451-.6.6h0a3.146,3.146,0,0,1-.9.6l-48.885,28.429a5.343,5.343,0,0,1-1.354.6l-.6.15a1.356,1.356,0,0,1-.752.15c-.3,0-.6.15-.9.15h-2.707c-.451,0-.752-.15-1.2-.15h-.15a2.137,2.137,0,0,1-.9-.3h-.15c-.3-.15-.752-.3-1.053-.451l-80.322-46.479c-.3-.15-.6-.451-.9-.6-.15-.15-.15-.15-.15-.3l-.451-.451c0-.15-.15-.15-.15-.3-.15-.15-.15-.3-.3-.451v-.3a.552.552,0,0,0-.15-.451v2.858a.553.553,0,0,0,.15.451v.3c0,.15.15.3.3.451,0,.15.15.15.15.3l.451.451c.15.15.15.15.15.3a3.146,3.146,0,0,0,.9.6l80.322,46.328c.3.15.752.3,1.053.451h.15c.3.15.6.15.9.3h.15a3.312,3.312,0,0,0,1.2.15h2.858l.9-.15.752-.15.6-.15a5.343,5.343,0,0,0,1.354-.6l48.735-28.278c.3-.15.6-.451.9-.6h0a3.283,3.283,0,0,0,.6-.752h0a1.149,1.149,0,0,0,.3-.752h0v-.6h0V313.2Z" transform="translate(-108.939 -75.463)" opacity="0.3"/>
      <path id="Path_2278" data-name="Path 2278" d="M207.5,300.695l78.066,45.125.3.15h.15a.9.9,0,0,0,.6.15l.451.15h1.805a.553.553,0,0,0,.451-.15,3.413,3.413,0,0,0,.6-.15c.15,0,.3-.15.6-.15l25.12-14.59L235.026,284.6Z" transform="translate(-106.721 -80.858)" fill="#e0e0e0"/>
      <path id="Path_2279" data-name="Path 2279" d="M261.2,325.6Z" transform="translate(-79.647 -60.187)" fill="#263238"/>
      <path id="Path_2280" data-name="Path 2280" d="M262.077,287.213l-14.741,8.574a1.479,1.479,0,0,0-.451,2.106c.15.15.3.451.451.451L269.3,310.979a2.309,2.309,0,0,0,2.407,0l14.741-8.574a1.479,1.479,0,0,0,.451-2.106c-.15-.15-.3-.451-.451-.451l-21.961-12.635A2.3,2.3,0,0,0,262.077,287.213Z" transform="translate(-86.992 -79.711)" fill="#e0e0e0"/>
      <path id="Path_2281" data-name="Path 2281" d="M207.5,300.695l78.066,45.125.3.15h.15a.9.9,0,0,0,.6.15l.451.15h1.805a.553.553,0,0,0,.451-.15,3.413,3.413,0,0,0,.6-.15c.15,0,.3-.15.6-.15l25.12-14.59L235.026,284.6Z" transform="translate(-106.721 -80.858)" opacity="0.2"/>
      <path id="Path_2282" data-name="Path 2282" d="M262.077,287.213l-14.741,8.574a1.479,1.479,0,0,0-.451,2.106c.15.15.3.451.451.451L269.3,310.979a2.309,2.309,0,0,0,2.407,0l14.741-8.574a1.479,1.479,0,0,0,.451-2.106c-.15-.15-.3-.451-.451-.451l-21.961-12.635A2.3,2.3,0,0,0,262.077,287.213Z" transform="translate(-86.992 -79.711)" opacity="0.2"/>
      <path id="Path_2283" data-name="Path 2283" d="M250.772,268.29c-5.866,8.574,8.122,20.757,14.139,17.9S263.106,261.972,250.772,268.29Z" transform="translate(-85.614 -89.667)" fill="#455a64"/>
      <path id="Path_2284" data-name="Path 2284" d="M250.772,268.29c-5.866,8.574,8.122,20.757,14.139,17.9S263.106,261.972,250.772,268.29Z" transform="translate(-85.614 -89.667)" opacity="0.4"/>
      <path id="Path_2285" data-name="Path 2285" d="M315.394,227.559,299.3,275.843l-36.1,28.278a14.864,14.864,0,0,1-7.22,1.053l-14.44-1.2a7.7,7.7,0,0,0-4.813,1.2l-8.273,4.964a9.176,9.176,0,0,0-2.256,1.955l-4.061,4.813a3.052,3.052,0,0,0,.3,4.212c.15,0,.15.15.3.15l2.557,1.805a9.054,9.054,0,0,0,9.326.752l6.468-3.159,13.237,1.5v3.46l-3.61,3.008a3.822,3.822,0,0,0-.451,5.415l.451.451h0s8.875-2.557,16.847-15.493L309.979,298.1a30.385,30.385,0,0,0,15.342-17.749L349.388,206.2l-9.476,1.2A30.364,30.364,0,0,0,315.394,227.559Z" transform="translate(-99.697 -120.385)" fill="#ffa8a7"/>
      <path id="Path_2286" data-name="Path 2286" d="M321.075,205.655a33.02,33.02,0,0,0-26.924,22.111L278.357,275.3,257.9,291.242a15.76,15.76,0,0,1,13.237,17.9,13.547,13.547,0,0,1-1.2,4.212L292.8,302.072a33.552,33.552,0,0,0,16.847-19.4L335.214,204Z" transform="translate(-81.311 -121.494)" fill="#455a64"/>
      <path id="Path_2287" data-name="Path 2287" d="M273.314,270.122A16.317,16.317,0,0,0,261.732,262L250.3,270.875a14.258,14.258,0,0,1,14.59,13.838,18.673,18.673,0,0,1-.451,4.061l9.326-4.663A16.284,16.284,0,0,0,273.314,270.122Z" transform="translate(-85.143 -92.252)" fill="#455a64"/>
      <path id="Path_2288" data-name="Path 2288" d="M321.075,205.655a33.02,33.02,0,0,0-26.924,22.111L278.357,275.3,257.9,291.242a15.76,15.76,0,0,1,13.237,17.9,13.547,13.547,0,0,1-1.2,4.212L292.8,302.072a33.552,33.552,0,0,0,16.847-19.4L335.214,204Z" transform="translate(-81.311 -121.494)" fill="#fff" opacity="0.2"/>
      <path id="Path_2289" data-name="Path 2289" d="M273.314,270.122A16.317,16.317,0,0,0,261.732,262L250.3,270.875a14.258,14.258,0,0,1,14.59,13.838,18.673,18.673,0,0,1-.451,4.061l9.326-4.663A16.284,16.284,0,0,0,273.314,270.122Z" transform="translate(-85.143 -92.252)" fill="#fff" opacity="0.4"/>
      <path id="Path_2290" data-name="Path 2290" d="M271.4,252.724c10.228.15,15.042,5.415,16.4,8.122.451-15.192-15.192-11.732-15.192-11.732Z" transform="translate(-74.505 -98.92)" opacity="0.2"/>
      <path id="Path_2291" data-name="Path 2291" d="M196.011,255.973h0l1.955-.9h0a2.093,2.093,0,0,1,2.106.15L281,302.3a9.741,9.741,0,0,1,4.663,6.919l8.273,52.947a2.529,2.529,0,0,1-1.354,2.557h0l-1.8.9h0a2.543,2.543,0,0,1-2.106-.15L207.744,318.4a9.741,9.741,0,0,1-4.663-6.919l-8.273-52.947A2.828,2.828,0,0,1,196.011,255.973Z" transform="translate(-113.132 -95.852)" fill="#e0e0e0"/>
      <path id="Path_2292" data-name="Path 2292" d="M227.084,288.141a17.2,17.2,0,0,1,7.972,11.582c.6,4.061-2.256,5.716-6.167,3.46a17.2,17.2,0,0,1-7.972-11.582C220.465,287.539,223.173,285.884,227.084,288.141Z" transform="translate(-99.982 -79.585)" fill="#fff"/>
      <path id="Path_2293" data-name="Path 2293" d="M292.067,362.919l-8.273-52.947a10.2,10.2,0,0,0-4.663-6.919l-80.924-47.08a2.308,2.308,0,0,0-2.407,0h0l1.955-.9h0a2.093,2.093,0,0,1,2.106.15l80.924,47.08a9.741,9.741,0,0,1,4.663,6.919l8.273,52.947a2.529,2.529,0,0,1-1.354,2.557h0l-1.805.9h0A2.726,2.726,0,0,0,292.067,362.919Z" transform="translate(-112.62 -95.852)" opacity="0.3"/>
      <path id="Path_2294" data-name="Path 2294" d="M319.055,204.7l-7.07.752a17.72,17.72,0,0,0-12.785,7.671c-7.37,11.281-10.83,28.579-8.875,47.231,1.5,14.29,2.557,28.429-5.716,49.637-3.008,7.521,1.655,16.095,9.175,19.1,23.916,9.476,57.91,5.265,75.509-.451a10.5,10.5,0,0,0,6.769-13.387,2.138,2.138,0,0,1-.3-.9s-6.618-36.4-5.265-39.409c2.858-6.769,3.61-23.164,4.362-33.392a53.525,53.525,0,0,0-5.565-26.473L342.22,205Z" transform="translate(-68.311 -121.141)" fill="#fff"/>
      <path id="Path_2295" data-name="Path 2295" d="M329.185,219.771a12.289,12.289,0,0,0,5.565,4.362,6.864,6.864,0,0,0,9.175-3.309,6.954,6.954,0,0,0,.6-3.911,10.535,10.535,0,0,0,7.37-6.618,12.534,12.534,0,0,0-.9-10.379c4.212-2.407,8.122-5.866,9.777-10.529s-.3-10.83-4.663-12.785a9.164,9.164,0,0,0,1.655-10.68,7.935,7.935,0,0,0-9.326-4.061,12.589,12.589,0,0,0-7.37-10.228,11.962,11.962,0,0,0-12.184,1.8,6.85,6.85,0,0,0-5.114-3.46,6.635,6.635,0,0,0-5.565,2.407,9.089,9.089,0,0,0-10.379-2.557,17.026,17.026,0,0,0-8.423,8.122,7.231,7.231,0,0,0-7.37.451,8.419,8.419,0,0,0-3.61,6.919,8.761,8.761,0,0,0,3.46,7.07,6.818,6.818,0,0,0-3.76,4.813,6.718,6.718,0,0,0,2.106,5.866,5.593,5.593,0,0,0,5.716.9c6.167,6.769,17.147,6.618,23.916,12.635a25.114,25.114,0,0,1,6.618,10.379C327.531,210.6,326.628,216.613,329.185,219.771Z" transform="translate(-66.107 -149.148)" fill="#263238"/>
      <path id="Path_2296" data-name="Path 2296" d="M331.208,192.8v18.351a8.584,8.584,0,0,1-3.008,6.618,24.9,24.9,0,0,1-17.6,6.017,5.252,5.252,0,0,1-3.61-1.2,4.779,4.779,0,0,1-1.2-4.964,9.145,9.145,0,0,1,1.354-2.707,8.59,8.59,0,0,0,1.5-4.663V192.8h22.562Z" transform="translate(-57.3 -127.14)" fill="#ffa8a7"/>
      <path id="Path_2297" data-name="Path 2297" d="M316.775,207.691a47.173,47.173,0,0,1-9.175,1.8V192.8h22.562v3.911a10.82,10.82,0,0,1-1.805,3.159A23.486,23.486,0,0,1,316.775,207.691Z" transform="translate(-56.254 -127.14)" opacity="0.2"/>
      <path id="Path_2298" data-name="Path 2298" d="M350.626,182.733a7.542,7.542,0,0,0-5.866,1.655A17.748,17.748,0,0,0,340.7,189.2a5.311,5.311,0,0,1-1.955,2.106,2.488,2.488,0,0,1-2.858,0,3.226,3.226,0,0,1-.752-3.008l.3-7.671a3.225,3.225,0,0,0-1.655-2.858,7.3,7.3,0,0,1-3.46-3.911c-.15-.3-.15-.6-.3-.752a7.04,7.04,0,0,1-4.663.752A6.6,6.6,0,0,1,321.295,171a5.094,5.094,0,0,1-3.61,2.407,4.564,4.564,0,0,1-3.76-1.8,8.157,8.157,0,0,1-11.281,1.955,6.554,6.554,0,0,1-1.955-2.106,8.829,8.829,0,0,1-7.972-.752,93.2,93.2,0,0,0,2.557,35.348,35.15,35.15,0,0,0,2.858,7.521,12.1,12.1,0,0,0,6.017,5.265c3.159,1.2,6.618.6,9.927,0,6.017-1.053,12.184-2.106,17.3-5.265s9.326-8.875,8.875-14.891a10.576,10.576,0,0,0,9.928.6,10.3,10.3,0,0,0,5.415-8.423C355.89,187.246,353.935,183.335,350.626,182.733Z" transform="translate(-64.082 -138.282)" fill="#ffa8a7"/>
      <path id="Path_2299" data-name="Path 2299" d="M306.219,182,299.3,193.732l8.273,1.5Z" transform="translate(-60.439 -132.585)" fill="#f28f8f"/>
      <path id="Path_2300" data-name="Path 2300" d="M312.117,193.5l-6.318,3.008a4.152,4.152,0,0,0,4.813,1.354A3.593,3.593,0,0,0,312.117,193.5Z" transform="translate(-57.162 -126.787)" fill="#f28f8f"/>
      <path id="Path_2301" data-name="Path 2301" d="M312.117,193.5l-6.318,3.008a4.152,4.152,0,0,0,4.813,1.354A3.593,3.593,0,0,0,312.117,193.5Z" transform="translate(-57.162 -126.787)" opacity="0.3"/>
      <path id="Path_2302" data-name="Path 2302" d="M307.6,197.66a3.869,3.869,0,0,0,2.256-.15,3.239,3.239,0,0,0,1.655-3.309,3.416,3.416,0,0,0-2.407.9A3.1,3.1,0,0,0,307.6,197.66Z" transform="translate(-56.254 -126.435)" fill="#f28f8f"/>
      <path id="Path_2303" data-name="Path 2303" d="M313.368,183.011a2.342,2.342,0,1,1-2.557-2.106,2.34,2.34,0,0,1,2.557,2.106Z" transform="translate(-55.705 -133.145)" fill="#263238"/>
      <path id="Path_2304" data-name="Path 2304" d="M300.168,183.911a2.342,2.342,0,1,1-2.557-2.106,2.34,2.34,0,0,1,2.557,2.106Z" transform="translate(-62.36 -132.692)" fill="#263238"/>
      <path id="Path_2305" data-name="Path 2305" d="M298.218,177.258l-4.813,4.212a3.393,3.393,0,0,1,.6-3.76A3.615,3.615,0,0,1,298.218,177.258Z" transform="translate(-63.569 -135.213)" fill="#263238"/>
      <path id="Path_2306" data-name="Path 2306" d="M309.9,175.772l5.565,3.159a3.363,3.363,0,0,0-1.354-3.61A4.155,4.155,0,0,0,309.9,175.772Z" transform="translate(-55.095 -136.135)" fill="#263238"/>
      <path id="Path_2307" data-name="Path 2307" d="M364.828,330.147c-7.822,7.671-30.384,17.9-45.727,12.485-3.61-46.328-.3-119.581,5.866-137.932l27.075,10.078c16.095,27.376,5.415,72.35,5.415,72.35A160.223,160.223,0,0,0,364.828,330.147Z" transform="translate(-51.209 -121.141)" fill="#455a64"/>
      <path id="Path_2308" data-name="Path 2308" d="M364.828,330.147c-7.822,7.671-30.384,17.9-45.727,12.485-3.61-46.328-.3-119.581,5.866-137.932l27.075,10.078c16.095,27.376,5.415,72.35,5.415,72.35A160.223,160.223,0,0,0,364.828,330.147Z" transform="translate(-51.209 -121.141)" fill="#fff" opacity="0.1"/>
      <path id="Path_2309" data-name="Path 2309" d="M335.6,246.115l-9.627-11.281,7.822-5.415a4.478,4.478,0,0,0,1.354-5.866L324.92,204.6c-3.911,11.883-6.769,46.178-7.22,81.676l18.5-35.2A4.347,4.347,0,0,0,335.6,246.115Z" transform="translate(-51.162 -121.191)" fill="#455a64"/>
      <path id="Path_2310" data-name="Path 2310" d="M335.6,246.115l-9.627-11.281,7.822-5.415a4.478,4.478,0,0,0,1.354-5.866L324.92,204.6c-3.911,11.883-6.769,46.178-7.22,81.676l18.5-35.2A4.347,4.347,0,0,0,335.6,246.115Z" transform="translate(-51.162 -121.191)" fill="#fff" opacity="0.4"/>
      <path id="Path_2311" data-name="Path 2311" d="M321.717,204.952c-4.512,5.716-19.855,23.766-21.961,90.1-.6,17.3-8.724,38.206-8.724,38.206l-11.432-16.4s13.086-16.095,13.086-42.568-4.813-35.95,3.008-52.646S312.541,205.4,315.1,205.1l6.618-.9Z" transform="translate(-70.371 -121.393)" fill="#455a64"/>
      <path id="Path_2312" data-name="Path 2312" d="M321.717,204.952c-4.512,5.716-19.855,23.766-21.961,90.1-.6,17.3-8.724,38.206-8.724,38.206l-11.432-16.4s13.086-16.095,13.086-42.568-4.813-35.95,3.008-52.646S312.541,205.4,315.1,205.1l6.618-.9Z" transform="translate(-70.371 -121.393)" fill="#fff" opacity="0.1"/>
      <path id="Path_2313" data-name="Path 2313" d="M316.9,204.2l-19.554,16.4a4.44,4.44,0,0,0-1.2,5.415l2.256,4.362-7.22,7.671a7.975,7.975,0,0,0-1.955,6.468l6.468,35.348c3.76-54,17-69.793,21.209-74.907Z" transform="translate(-65.556 -121.393)" fill="#455a64"/>
      <path id="Path_2314" data-name="Path 2314" d="M316.9,204.2l-19.554,16.4a4.44,4.44,0,0,0-1.2,5.415l2.256,4.362-7.22,7.671a7.975,7.975,0,0,0-1.955,6.468l6.468,35.348c3.76-54,17-69.793,21.209-74.907Z" transform="translate(-65.556 -121.393)" fill="#fff" opacity="0.4"/>
      <path id="Path_2315" data-name="Path 2315" d="M382.11,211.4l-28.429,85.587-50.841,19.7a16.765,16.765,0,0,1-8.122,1.2l-13.688-2.407a9.049,9.049,0,0,0-5.565,1.354l-9.476,5.716a17.316,17.316,0,0,0-2.557,2.106l-4.663,5.415a3.371,3.371,0,0,0,.451,4.813c.15,0,.15.15.3.15l2.858,2.106a10.145,10.145,0,0,0,10.68.752l7.22-3.61,3.309.752a32.954,32.954,0,0,0,21.81-2.106h0l55.052-11.131a24.368,24.368,0,0,0,17.9-15.342s26.323-62.423,20.156-76.562C396.1,223.885,382.11,211.4,382.11,211.4Z" transform="translate(-81.277 -117.763)" fill="#ffa8a7"/>
      <path id="Path_2316" data-name="Path 2316" d="M367.372,211.4l-29.331,84.684-50.841,19.4c9.476,5.265,9.927,17.147,9.025,18.5l53.7-11.281a21.155,21.155,0,0,0,15.342-13.086l21.66-57.158c9.326-25.721-4.212-35.047-19.554-41.064Z" transform="translate(-66.539 -117.763)" fill="#455a64"/>
      <path id="Path_2317" data-name="Path 2317" d="M367.372,211.4l-29.331,84.684-50.841,19.4c9.476,5.265,9.927,17.147,9.025,18.5l53.7-11.281a21.155,21.155,0,0,0,15.342-13.086l21.66-57.158c9.326-25.721-4.212-35.047-19.554-41.064Z" transform="translate(-66.539 -117.763)" fill="#fff" opacity="0.2"/>
      <path id="Path_2318" data-name="Path 2318" d="M308.108,286.576a20.048,20.048,0,0,0-7.07-9.476L287.2,282.365c9.476,5.265,9.927,17.147,9.025,18.5l12.334-2.557A20.753,20.753,0,0,0,308.108,286.576Z" transform="translate(-66.539 -84.639)" fill="#fff" opacity="0.2"/>
      <path id="Path_2319" data-name="Path 2319" d="M321,269.265c9.326.15,15.794,4.212,16.847,7.07-1.655-13.989-15.342-11.582-15.342-11.582Z" transform="translate(-49.498 -90.944)" opacity="0.2"/>
      <path id="Path_2320" data-name="Path 2320" d="M287.482,322.9l-14.891-.9-14.891.9,3.76,26.172h0a6.346,6.346,0,0,0,3.46,4.362,16.909,16.909,0,0,0,15.643,0,5.79,5.79,0,0,0,3.309-4.362h0Z" transform="translate(-81.412 -62.002)" fill="#fff"/>
      <path id="Path_2321" data-name="Path 2321" d="M288.637,320.313h-1.955a9.366,9.366,0,0,0-2.707-2.106,24.233,24.233,0,0,0-22.262,0,12.968,12.968,0,0,0-2.707,2.106H257.2v4.362h0c0,2.407,1.5,4.663,4.663,6.468a24.233,24.233,0,0,0,22.262,0c3.008-1.8,4.663-4.061,4.512-6.468h0Z" transform="translate(-81.664 -65.279)" fill="#0084ff"/>
      <path id="Path_2322" data-name="Path 2322" d="M284.012,315.307a24.233,24.233,0,0,0-22.262,0c-6.167,3.61-6.167,9.326,0,12.936a24.692,24.692,0,0,0,22.262,0C290.179,324.784,290.179,318.917,284.012,315.307Z" transform="translate(-81.702 -66.741)" fill="#0084ff"/>
      <path id="Path_2323" data-name="Path 2323" d="M284.012,315.307a24.233,24.233,0,0,0-22.262,0c-6.167,3.61-6.167,9.326,0,12.936a24.692,24.692,0,0,0,22.262,0C290.179,324.784,290.179,318.917,284.012,315.307Z" transform="translate(-81.702 -66.741)" opacity="0.2"/>
      <path id="Path_2324" data-name="Path 2324" d="M285.32,319.818h0l-1.053-3.76h-1.8c-.3-.15-.6-.451-.9-.6a21.028,21.028,0,0,0-18.952,0,3.147,3.147,0,0,0-.9.6h-1.8l-.9,3.309v.15l-.15.3h0c-.6,2.256.752,4.813,3.76,6.618a21.028,21.028,0,0,0,18.953,0C284.568,324.632,285.922,322.225,285.32,319.818Z" transform="translate(-80.904 -66.439)" fill="#0084ff"/>
      <path id="Path_2325" data-name="Path 2325" d="M280.408,313.081a19.435,19.435,0,0,0-17.3,0c-4.813,2.858-4.813,7.22,0,10.078a18.522,18.522,0,0,0,17.3,0C285.221,320.451,285.071,315.939,280.408,313.081Z" transform="translate(-80.504 -67.523)" fill="#0084ff"/>
      <path id="Path_2326" data-name="Path 2326" d="M280.408,313.081a19.435,19.435,0,0,0-17.3,0c-4.813,2.858-4.813,7.22,0,10.078a18.522,18.522,0,0,0,17.3,0C285.221,320.451,285.071,315.939,280.408,313.081Z" transform="translate(-80.504 -67.523)" opacity="0.1"/>
      <path id="Path_2327" data-name="Path 2327" d="M263.307,315.208a17.525,17.525,0,0,1,15.493,0,5.277,5.277,0,0,1,2.557,2.858v-.6a4.559,4.559,0,0,0-2.707-3.46,17.525,17.525,0,0,0-15.493,0,4.33,4.33,0,0,0-2.557,3.309v.6A6.7,6.7,0,0,1,263.307,315.208Z" transform="translate(-79.95 -66.943)" fill="#0084ff"/>
      <path id="Path_2328" data-name="Path 2328" d="M263.307,315.208a17.525,17.525,0,0,1,15.493,0,5.277,5.277,0,0,1,2.557,2.858v-.6a4.559,4.559,0,0,0-2.707-3.46,17.525,17.525,0,0,0-15.493,0,4.33,4.33,0,0,0-2.557,3.309v.6A6.7,6.7,0,0,1,263.307,315.208Z" transform="translate(-79.95 -66.943)" opacity="0.4"/>
      <path id="Path_2329" data-name="Path 2329" d="M263.408,320.521a15.56,15.56,0,0,0,7.671,1.8h0a16.476,16.476,0,0,0,7.671-1.8,5.278,5.278,0,0,0,2.557-2.858,5.277,5.277,0,0,0-2.557-2.858,17.525,17.525,0,0,0-15.493,0,5.278,5.278,0,0,0-2.557,2.858A5.562,5.562,0,0,0,263.408,320.521Z" transform="translate(-79.899 -66.54)" fill="#0084ff"/>
      <path id="Path_2330" data-name="Path 2330" d="M263.408,320.521a15.56,15.56,0,0,0,7.671,1.8h0a16.476,16.476,0,0,0,7.671-1.8,5.278,5.278,0,0,0,2.557-2.858,5.277,5.277,0,0,0-2.557-2.858,17.525,17.525,0,0,0-15.493,0,5.278,5.278,0,0,0-2.557,2.858A5.562,5.562,0,0,0,263.408,320.521Z" transform="translate(-79.899 -66.54)" opacity="0.2"/>
    </g>
  </g>
</svg>
